<?xml version="1.0" encoding="utf-8" standalone="no"?>
<!DOCTYPE svg PUBLIC "-//W3C//DTD SVG 1.1//EN"
  "http://www.w3.org/Graphics/SVG/1.1/DTD/svg11.dtd">
<svg xmlns:xlink="http://www.w3.org/1999/xlink" width="720pt" height="720pt" viewBox="0 0 720 720" xmlns="http://www.w3.org/2000/svg" version="1.1">
 <metadata>
  <rdf:RDF xmlns:dc="http://purl.org/dc/elements/1.1/" xmlns:cc="http://creativecommons.org/ns#" xmlns:rdf="http://www.w3.org/1999/02/22-rdf-syntax-ns#">
   <cc:Work>
    <dc:type rdf:resource="http://purl.org/dc/dcmitype/StillImage"/>
    <dc:date>2024-01-05T13:12:34.456380</dc:date>
    <dc:format>image/svg+xml</dc:format>
    <dc:creator>
     <cc:Agent>
      <dc:title>Matplotlib v3.7.2, https://matplotlib.org/</dc:title>
     </cc:Agent>
    </dc:creator>
   </cc:Work>
  </rdf:RDF>
 </metadata>
 <defs>
  <style type="text/css">*{stroke-linejoin: round; stroke-linecap: butt}</style>
 </defs>
 <g id="figure_1">
  <g id="patch_1">
   <path d="M 0 720 
L 720 720 
L 720 0 
L 0 0 
z
" style="fill: #ffffff"/>
  </g>
  <g id="axes_1">
   <g id="patch_2">
    <path d="M 90 249.458824 
L 648 249.458824 
L 648 86.4 
L 90 86.4 
z
" style="fill: #ffffff"/>
   </g>
   <g id="matplotlib.axis_1">
    <g id="xtick_1">
     <g id="line2d_1">
      <defs>
       <path id="m38f82a70db" d="M 0 0 
L 0 3.5 
" style="stroke: #000000; stroke-width: 0.8"/>
      </defs>
      <g>
       <use xlink:href="#m38f82a70db" x="115.363636" y="249.458824" style="stroke: #000000; stroke-width: 0.8"/>
      </g>
     </g>
    </g>
    <g id="xtick_2">
     <g id="line2d_2">
      <g>
       <use xlink:href="#m38f82a70db" x="171.727273" y="249.458824" style="stroke: #000000; stroke-width: 0.8"/>
      </g>
     </g>
    </g>
    <g id="xtick_3">
     <g id="line2d_3">
      <g>
       <use xlink:href="#m38f82a70db" x="228.090909" y="249.458824" style="stroke: #000000; stroke-width: 0.8"/>
      </g>
     </g>
    </g>
    <g id="xtick_4">
     <g id="line2d_4">
      <g>
       <use xlink:href="#m38f82a70db" x="284.454545" y="249.458824" style="stroke: #000000; stroke-width: 0.8"/>
      </g>
     </g>
    </g>
    <g id="xtick_5">
     <g id="line2d_5">
      <g>
       <use xlink:href="#m38f82a70db" x="340.818182" y="249.458824" style="stroke: #000000; stroke-width: 0.8"/>
      </g>
     </g>
    </g>
    <g id="xtick_6">
     <g id="line2d_6">
      <g>
       <use xlink:href="#m38f82a70db" x="397.181818" y="249.458824" style="stroke: #000000; stroke-width: 0.8"/>
      </g>
     </g>
    </g>
    <g id="xtick_7">
     <g id="line2d_7">
      <g>
       <use xlink:href="#m38f82a70db" x="453.545455" y="249.458824" style="stroke: #000000; stroke-width: 0.8"/>
      </g>
     </g>
    </g>
    <g id="xtick_8">
     <g id="line2d_8">
      <g>
       <use xlink:href="#m38f82a70db" x="509.909091" y="249.458824" style="stroke: #000000; stroke-width: 0.8"/>
      </g>
     </g>
    </g>
    <g id="xtick_9">
     <g id="line2d_9">
      <g>
       <use xlink:href="#m38f82a70db" x="566.272727" y="249.458824" style="stroke: #000000; stroke-width: 0.8"/>
      </g>
     </g>
    </g>
    <g id="xtick_10">
     <g id="line2d_10">
      <g>
       <use xlink:href="#m38f82a70db" x="622.636364" y="249.458824" style="stroke: #000000; stroke-width: 0.8"/>
      </g>
     </g>
    </g>
   </g>
   <g id="matplotlib.axis_2">
    <g id="ytick_1">
     <g id="line2d_11">
      <defs>
       <path id="mda626b0abd" d="M 0 0 
L -3.5 0 
" style="stroke: #000000; stroke-width: 0.8"/>
      </defs>
      <g>
       <use xlink:href="#mda626b0abd" x="90" y="242.047059" style="stroke: #000000; stroke-width: 0.8"/>
      </g>
     </g>
     <g id="text_1">
      <!-- 0 -->
      <g transform="translate(72.82 248.125809) scale(0.16 -0.16)">
       <defs>
        <path id="DejaVuSans-30" d="M 2034 4250 
Q 1547 4250 1301 3770 
Q 1056 3291 1056 2328 
Q 1056 1369 1301 889 
Q 1547 409 2034 409 
Q 2525 409 2770 889 
Q 3016 1369 3016 2328 
Q 3016 3291 2770 3770 
Q 2525 4250 2034 4250 
z
M 2034 4750 
Q 2819 4750 3233 4129 
Q 3647 3509 3647 2328 
Q 3647 1150 3233 529 
Q 2819 -91 2034 -91 
Q 1250 -91 836 529 
Q 422 1150 422 2328 
Q 422 3509 836 4129 
Q 1250 4750 2034 4750 
z
" transform="scale(0.015625)"/>
       </defs>
       <use xlink:href="#DejaVuSans-30"/>
      </g>
     </g>
    </g>
    <g id="ytick_2">
     <g id="line2d_12">
      <g>
       <use xlink:href="#mda626b0abd" x="90" y="208.798021" style="stroke: #000000; stroke-width: 0.8"/>
      </g>
     </g>
     <g id="text_2">
      <!-- 5 -->
      <g transform="translate(72.82 214.876771) scale(0.16 -0.16)">
       <defs>
        <path id="DejaVuSans-35" d="M 691 4666 
L 3169 4666 
L 3169 4134 
L 1269 4134 
L 1269 2991 
Q 1406 3038 1543 3061 
Q 1681 3084 1819 3084 
Q 2600 3084 3056 2656 
Q 3513 2228 3513 1497 
Q 3513 744 3044 326 
Q 2575 -91 1722 -91 
Q 1428 -91 1123 -41 
Q 819 9 494 109 
L 494 744 
Q 775 591 1075 516 
Q 1375 441 1709 441 
Q 2250 441 2565 725 
Q 2881 1009 2881 1497 
Q 2881 1984 2565 2268 
Q 2250 2553 1709 2553 
Q 1456 2553 1204 2497 
Q 953 2441 691 2322 
L 691 4666 
z
" transform="scale(0.015625)"/>
       </defs>
       <use xlink:href="#DejaVuSans-35"/>
      </g>
     </g>
    </g>
    <g id="ytick_3">
     <g id="line2d_13">
      <g>
       <use xlink:href="#mda626b0abd" x="90" y="175.548983" style="stroke: #000000; stroke-width: 0.8"/>
      </g>
     </g>
     <g id="text_3">
      <!-- 10 -->
      <g transform="translate(62.64 181.627733) scale(0.16 -0.16)">
       <defs>
        <path id="DejaVuSans-31" d="M 794 531 
L 1825 531 
L 1825 4091 
L 703 3866 
L 703 4441 
L 1819 4666 
L 2450 4666 
L 2450 531 
L 3481 531 
L 3481 0 
L 794 0 
L 794 531 
z
" transform="scale(0.015625)"/>
       </defs>
       <use xlink:href="#DejaVuSans-31"/>
       <use xlink:href="#DejaVuSans-30" x="63.623047"/>
      </g>
     </g>
    </g>
    <g id="ytick_4">
     <g id="line2d_14">
      <g>
       <use xlink:href="#mda626b0abd" x="90" y="142.299945" style="stroke: #000000; stroke-width: 0.8"/>
      </g>
     </g>
     <g id="text_4">
      <!-- 15 -->
      <g transform="translate(62.64 148.378695) scale(0.16 -0.16)">
       <use xlink:href="#DejaVuSans-31"/>
       <use xlink:href="#DejaVuSans-35" x="63.623047"/>
      </g>
     </g>
    </g>
    <g id="ytick_5">
     <g id="line2d_15">
      <g>
       <use xlink:href="#mda626b0abd" x="90" y="109.050907" style="stroke: #000000; stroke-width: 0.8"/>
      </g>
     </g>
     <g id="text_5">
      <!-- 20 -->
      <g transform="translate(62.64 115.129657) scale(0.16 -0.16)">
       <defs>
        <path id="DejaVuSans-32" d="M 1228 531 
L 3431 531 
L 3431 0 
L 469 0 
L 469 531 
Q 828 903 1448 1529 
Q 2069 2156 2228 2338 
Q 2531 2678 2651 2914 
Q 2772 3150 2772 3378 
Q 2772 3750 2511 3984 
Q 2250 4219 1831 4219 
Q 1534 4219 1204 4116 
Q 875 4013 500 3803 
L 500 4441 
Q 881 4594 1212 4672 
Q 1544 4750 1819 4750 
Q 2544 4750 2975 4387 
Q 3406 4025 3406 3419 
Q 3406 3131 3298 2873 
Q 3191 2616 2906 2266 
Q 2828 2175 2409 1742 
Q 1991 1309 1228 531 
z
" transform="scale(0.015625)"/>
       </defs>
       <use xlink:href="#DejaVuSans-32"/>
       <use xlink:href="#DejaVuSans-30" x="63.623047"/>
      </g>
     </g>
    </g>
   </g>
   <g id="line2d_16">
    <path d="M 115.363636 149.830631 
L 171.727273 145.211586 
L 228.090909 147.119969 
L 284.454545 141.644611 
L 340.818182 140.995549 
L 397.181818 137.162167 
L 453.545455 134.060669 
L 509.909091 135.626937 
L 566.272727 137.645162 
L 622.636364 130.294551 
" clip-path="url(#p0db88d210c)" style="fill: none; stroke-dasharray: 7.4,3.2; stroke-dashoffset: 0; stroke: #1f77b4; stroke-width: 2"/>
    <defs>
     <path id="m619ee1877f" d="M 0 3 
C 0.795609 3 1.55874 2.683901 2.12132 2.12132 
C 2.683901 1.55874 3 0.795609 3 0 
C 3 -0.795609 2.683901 -1.55874 2.12132 -2.12132 
C 1.55874 -2.683901 0.795609 -3 0 -3 
C -0.795609 -3 -1.55874 -2.683901 -2.12132 -2.12132 
C -2.683901 -1.55874 -3 -0.795609 -3 0 
C -3 0.795609 -2.683901 1.55874 -2.12132 2.12132 
C -1.55874 2.683901 -0.795609 3 0 3 
z
" style="stroke: #1f77b4"/>
    </defs>
    <g clip-path="url(#p0db88d210c)">
     <use xlink:href="#m619ee1877f" x="115.363636" y="149.830631" style="fill: #1f77b4; stroke: #1f77b4"/>
     <use xlink:href="#m619ee1877f" x="171.727273" y="145.211586" style="fill: #1f77b4; stroke: #1f77b4"/>
     <use xlink:href="#m619ee1877f" x="228.090909" y="147.119969" style="fill: #1f77b4; stroke: #1f77b4"/>
     <use xlink:href="#m619ee1877f" x="284.454545" y="141.644611" style="fill: #1f77b4; stroke: #1f77b4"/>
     <use xlink:href="#m619ee1877f" x="340.818182" y="140.995549" style="fill: #1f77b4; stroke: #1f77b4"/>
     <use xlink:href="#m619ee1877f" x="397.181818" y="137.162167" style="fill: #1f77b4; stroke: #1f77b4"/>
     <use xlink:href="#m619ee1877f" x="453.545455" y="134.060669" style="fill: #1f77b4; stroke: #1f77b4"/>
     <use xlink:href="#m619ee1877f" x="509.909091" y="135.626937" style="fill: #1f77b4; stroke: #1f77b4"/>
     <use xlink:href="#m619ee1877f" x="566.272727" y="137.645162" style="fill: #1f77b4; stroke: #1f77b4"/>
     <use xlink:href="#m619ee1877f" x="622.636364" y="130.294551" style="fill: #1f77b4; stroke: #1f77b4"/>
    </g>
   </g>
   <g id="line2d_17">
    <path d="M 115.363636 174.296982 
L 171.727273 177.453626 
L 228.090909 173.358503 
L 284.454545 173.364283 
L 340.818182 164.812783 
L 397.181818 168.078885 
L 453.545455 163.528644 
L 509.909091 161.071385 
L 566.272727 162.405496 
L 622.636364 163.987418 
" clip-path="url(#p0db88d210c)" style="fill: none; stroke-dasharray: 7.4,3.2; stroke-dashoffset: 0; stroke: #ff7f0e; stroke-width: 2"/>
    <defs>
     <path id="m02d8f58111" d="M 0 3 
C 0.795609 3 1.55874 2.683901 2.12132 2.12132 
C 2.683901 1.55874 3 0.795609 3 0 
C 3 -0.795609 2.683901 -1.55874 2.12132 -2.12132 
C 1.55874 -2.683901 0.795609 -3 0 -3 
C -0.795609 -3 -1.55874 -2.683901 -2.12132 -2.12132 
C -2.683901 -1.55874 -3 -0.795609 -3 0 
C -3 0.795609 -2.683901 1.55874 -2.12132 2.12132 
C -1.55874 2.683901 -0.795609 3 0 3 
z
" style="stroke: #ff7f0e"/>
    </defs>
    <g clip-path="url(#p0db88d210c)">
     <use xlink:href="#m02d8f58111" x="115.363636" y="174.296982" style="fill: #ff7f0e; stroke: #ff7f0e"/>
     <use xlink:href="#m02d8f58111" x="171.727273" y="177.453626" style="fill: #ff7f0e; stroke: #ff7f0e"/>
     <use xlink:href="#m02d8f58111" x="228.090909" y="173.358503" style="fill: #ff7f0e; stroke: #ff7f0e"/>
     <use xlink:href="#m02d8f58111" x="284.454545" y="173.364283" style="fill: #ff7f0e; stroke: #ff7f0e"/>
     <use xlink:href="#m02d8f58111" x="340.818182" y="164.812783" style="fill: #ff7f0e; stroke: #ff7f0e"/>
     <use xlink:href="#m02d8f58111" x="397.181818" y="168.078885" style="fill: #ff7f0e; stroke: #ff7f0e"/>
     <use xlink:href="#m02d8f58111" x="453.545455" y="163.528644" style="fill: #ff7f0e; stroke: #ff7f0e"/>
     <use xlink:href="#m02d8f58111" x="509.909091" y="161.071385" style="fill: #ff7f0e; stroke: #ff7f0e"/>
     <use xlink:href="#m02d8f58111" x="566.272727" y="162.405496" style="fill: #ff7f0e; stroke: #ff7f0e"/>
     <use xlink:href="#m02d8f58111" x="622.636364" y="163.987418" style="fill: #ff7f0e; stroke: #ff7f0e"/>
    </g>
   </g>
   <g id="line2d_18">
    <path d="M 115.363636 242.047059 
L 171.727273 242.047059 
L 228.090909 163.357669 
L 284.454545 93.811765 
L 340.818182 188.848598 
L 397.181818 143.062449 
L 453.545455 159.787973 
L 509.909091 157.702293 
L 566.272727 153.586879 
L 622.636364 164.389112 
" clip-path="url(#p0db88d210c)" style="fill: none; stroke-dasharray: 7.4,3.2; stroke-dashoffset: 0; stroke: #2ca02c; stroke-width: 2"/>
    <defs>
     <path id="m2d7e63e3a7" d="M 0 3 
C 0.795609 3 1.55874 2.683901 2.12132 2.12132 
C 2.683901 1.55874 3 0.795609 3 0 
C 3 -0.795609 2.683901 -1.55874 2.12132 -2.12132 
C 1.55874 -2.683901 0.795609 -3 0 -3 
C -0.795609 -3 -1.55874 -2.683901 -2.12132 -2.12132 
C -2.683901 -1.55874 -3 -0.795609 -3 0 
C -3 0.795609 -2.683901 1.55874 -2.12132 2.12132 
C -1.55874 2.683901 -0.795609 3 0 3 
z
" style="stroke: #2ca02c"/>
    </defs>
    <g clip-path="url(#p0db88d210c)">
     <use xlink:href="#m2d7e63e3a7" x="115.363636" y="242.047059" style="fill: #2ca02c; stroke: #2ca02c"/>
     <use xlink:href="#m2d7e63e3a7" x="171.727273" y="242.047059" style="fill: #2ca02c; stroke: #2ca02c"/>
     <use xlink:href="#m2d7e63e3a7" x="228.090909" y="163.357669" style="fill: #2ca02c; stroke: #2ca02c"/>
     <use xlink:href="#m2d7e63e3a7" x="284.454545" y="93.811765" style="fill: #2ca02c; stroke: #2ca02c"/>
     <use xlink:href="#m2d7e63e3a7" x="340.818182" y="188.848598" style="fill: #2ca02c; stroke: #2ca02c"/>
     <use xlink:href="#m2d7e63e3a7" x="397.181818" y="143.062449" style="fill: #2ca02c; stroke: #2ca02c"/>
     <use xlink:href="#m2d7e63e3a7" x="453.545455" y="159.787973" style="fill: #2ca02c; stroke: #2ca02c"/>
     <use xlink:href="#m2d7e63e3a7" x="509.909091" y="157.702293" style="fill: #2ca02c; stroke: #2ca02c"/>
     <use xlink:href="#m2d7e63e3a7" x="566.272727" y="153.586879" style="fill: #2ca02c; stroke: #2ca02c"/>
     <use xlink:href="#m2d7e63e3a7" x="622.636364" y="164.389112" style="fill: #2ca02c; stroke: #2ca02c"/>
    </g>
   </g>
   <g id="line2d_19">
    <path d="M 115.363636 187.186146 
L 171.727273 126.783727 
L 228.090909 219.881034 
L 284.454545 156.264541 
L 340.818182 184.735453 
L 397.181818 185.628562 
L 453.545455 190.061438 
L 509.909091 191.403299 
L 566.272727 188.452643 
L 622.636364 190.263159 
" clip-path="url(#p0db88d210c)" style="fill: none; stroke-dasharray: 7.4,3.2; stroke-dashoffset: 0; stroke: #d62728; stroke-width: 2"/>
    <defs>
     <path id="ma341a593dd" d="M 0 3 
C 0.795609 3 1.55874 2.683901 2.12132 2.12132 
C 2.683901 1.55874 3 0.795609 3 0 
C 3 -0.795609 2.683901 -1.55874 2.12132 -2.12132 
C 1.55874 -2.683901 0.795609 -3 0 -3 
C -0.795609 -3 -1.55874 -2.683901 -2.12132 -2.12132 
C -2.683901 -1.55874 -3 -0.795609 -3 0 
C -3 0.795609 -2.683901 1.55874 -2.12132 2.12132 
C -1.55874 2.683901 -0.795609 3 0 3 
z
" style="stroke: #d62728"/>
    </defs>
    <g clip-path="url(#p0db88d210c)">
     <use xlink:href="#ma341a593dd" x="115.363636" y="187.186146" style="fill: #d62728; stroke: #d62728"/>
     <use xlink:href="#ma341a593dd" x="171.727273" y="126.783727" style="fill: #d62728; stroke: #d62728"/>
     <use xlink:href="#ma341a593dd" x="228.090909" y="219.881034" style="fill: #d62728; stroke: #d62728"/>
     <use xlink:href="#ma341a593dd" x="284.454545" y="156.264541" style="fill: #d62728; stroke: #d62728"/>
     <use xlink:href="#ma341a593dd" x="340.818182" y="184.735453" style="fill: #d62728; stroke: #d62728"/>
     <use xlink:href="#ma341a593dd" x="397.181818" y="185.628562" style="fill: #d62728; stroke: #d62728"/>
     <use xlink:href="#ma341a593dd" x="453.545455" y="190.061438" style="fill: #d62728; stroke: #d62728"/>
     <use xlink:href="#ma341a593dd" x="509.909091" y="191.403299" style="fill: #d62728; stroke: #d62728"/>
     <use xlink:href="#ma341a593dd" x="566.272727" y="188.452643" style="fill: #d62728; stroke: #d62728"/>
     <use xlink:href="#ma341a593dd" x="622.636364" y="190.263159" style="fill: #d62728; stroke: #d62728"/>
    </g>
   </g>
   <g id="line2d_20">
    <path d="M 115.363636 159.003817 
L 171.727273 165.396351 
L 228.090909 149.992303 
L 284.454545 145.579728 
L 340.818182 147.996 
L 397.181818 149.278705 
L 453.545455 146.544923 
L 509.909091 170.95013 
L 566.272727 160.023527 
L 622.636364 153.131925 
" clip-path="url(#p0db88d210c)" style="fill: none; stroke-dasharray: 7.4,3.2; stroke-dashoffset: 0; stroke: #9467bd; stroke-width: 2"/>
    <defs>
     <path id="ma4737a265c" d="M 0 3 
C 0.795609 3 1.55874 2.683901 2.12132 2.12132 
C 2.683901 1.55874 3 0.795609 3 0 
C 3 -0.795609 2.683901 -1.55874 2.12132 -2.12132 
C 1.55874 -2.683901 0.795609 -3 0 -3 
C -0.795609 -3 -1.55874 -2.683901 -2.12132 -2.12132 
C -2.683901 -1.55874 -3 -0.795609 -3 0 
C -3 0.795609 -2.683901 1.55874 -2.12132 2.12132 
C -1.55874 2.683901 -0.795609 3 0 3 
z
" style="stroke: #9467bd"/>
    </defs>
    <g clip-path="url(#p0db88d210c)">
     <use xlink:href="#ma4737a265c" x="115.363636" y="159.003817" style="fill: #9467bd; stroke: #9467bd"/>
     <use xlink:href="#ma4737a265c" x="171.727273" y="165.396351" style="fill: #9467bd; stroke: #9467bd"/>
     <use xlink:href="#ma4737a265c" x="228.090909" y="149.992303" style="fill: #9467bd; stroke: #9467bd"/>
     <use xlink:href="#ma4737a265c" x="284.454545" y="145.579728" style="fill: #9467bd; stroke: #9467bd"/>
     <use xlink:href="#ma4737a265c" x="340.818182" y="147.996" style="fill: #9467bd; stroke: #9467bd"/>
     <use xlink:href="#ma4737a265c" x="397.181818" y="149.278705" style="fill: #9467bd; stroke: #9467bd"/>
     <use xlink:href="#ma4737a265c" x="453.545455" y="146.544923" style="fill: #9467bd; stroke: #9467bd"/>
     <use xlink:href="#ma4737a265c" x="509.909091" y="170.95013" style="fill: #9467bd; stroke: #9467bd"/>
     <use xlink:href="#ma4737a265c" x="566.272727" y="160.023527" style="fill: #9467bd; stroke: #9467bd"/>
     <use xlink:href="#ma4737a265c" x="622.636364" y="153.131925" style="fill: #9467bd; stroke: #9467bd"/>
    </g>
   </g>
   <g id="line2d_21">
    <path d="M 115.363636 162.041814 
L 171.727273 164.562198 
L 228.090909 155.506885 
L 284.454545 143.305726 
L 340.818182 143.866147 
L 397.181818 139.033254 
L 453.545455 149.67854 
L 509.909091 157.702293 
L 566.272727 153.586879 
L 622.636364 164.389112 
" clip-path="url(#p0db88d210c)" style="fill: none; stroke-dasharray: 7.4,3.2; stroke-dashoffset: 0; stroke: #8c564b; stroke-width: 2"/>
    <defs>
     <path id="m97b3c919cd" d="M 0 3 
C 0.795609 3 1.55874 2.683901 2.12132 2.12132 
C 2.683901 1.55874 3 0.795609 3 0 
C 3 -0.795609 2.683901 -1.55874 2.12132 -2.12132 
C 1.55874 -2.683901 0.795609 -3 0 -3 
C -0.795609 -3 -1.55874 -2.683901 -2.12132 -2.12132 
C -2.683901 -1.55874 -3 -0.795609 -3 0 
C -3 0.795609 -2.683901 1.55874 -2.12132 2.12132 
C -1.55874 2.683901 -0.795609 3 0 3 
z
" style="stroke: #8c564b"/>
    </defs>
    <g clip-path="url(#p0db88d210c)">
     <use xlink:href="#m97b3c919cd" x="115.363636" y="162.041814" style="fill: #8c564b; stroke: #8c564b"/>
     <use xlink:href="#m97b3c919cd" x="171.727273" y="164.562198" style="fill: #8c564b; stroke: #8c564b"/>
     <use xlink:href="#m97b3c919cd" x="228.090909" y="155.506885" style="fill: #8c564b; stroke: #8c564b"/>
     <use xlink:href="#m97b3c919cd" x="284.454545" y="143.305726" style="fill: #8c564b; stroke: #8c564b"/>
     <use xlink:href="#m97b3c919cd" x="340.818182" y="143.866147" style="fill: #8c564b; stroke: #8c564b"/>
     <use xlink:href="#m97b3c919cd" x="397.181818" y="139.033254" style="fill: #8c564b; stroke: #8c564b"/>
     <use xlink:href="#m97b3c919cd" x="453.545455" y="149.67854" style="fill: #8c564b; stroke: #8c564b"/>
     <use xlink:href="#m97b3c919cd" x="509.909091" y="157.702293" style="fill: #8c564b; stroke: #8c564b"/>
     <use xlink:href="#m97b3c919cd" x="566.272727" y="153.586879" style="fill: #8c564b; stroke: #8c564b"/>
     <use xlink:href="#m97b3c919cd" x="622.636364" y="164.389112" style="fill: #8c564b; stroke: #8c564b"/>
    </g>
   </g>
   <g id="line2d_22">
    <path d="M 115.363636 158.925513 
L 171.727273 159.856535 
L 228.090909 158.058771 
L 284.454545 155.514912 
L 340.818182 152.075177 
L 397.181818 149.362834 
L 453.545455 148.151053 
L 509.909091 150.513672 
L 566.272727 151.539192 
L 622.636364 149.22748 
" clip-path="url(#p0db88d210c)" style="fill: none; stroke-dasharray: 7.4,3.2; stroke-dashoffset: 0; stroke: #e377c2; stroke-width: 2"/>
    <defs>
     <path id="m8f23b838b0" d="M 0 3 
C 0.795609 3 1.55874 2.683901 2.12132 2.12132 
C 2.683901 1.55874 3 0.795609 3 0 
C 3 -0.795609 2.683901 -1.55874 2.12132 -2.12132 
C 1.55874 -2.683901 0.795609 -3 0 -3 
C -0.795609 -3 -1.55874 -2.683901 -2.12132 -2.12132 
C -2.683901 -1.55874 -3 -0.795609 -3 0 
C -3 0.795609 -2.683901 1.55874 -2.12132 2.12132 
C -1.55874 2.683901 -0.795609 3 0 3 
z
" style="stroke: #e377c2"/>
    </defs>
    <g clip-path="url(#p0db88d210c)">
     <use xlink:href="#m8f23b838b0" x="115.363636" y="158.925513" style="fill: #e377c2; stroke: #e377c2"/>
     <use xlink:href="#m8f23b838b0" x="171.727273" y="159.856535" style="fill: #e377c2; stroke: #e377c2"/>
     <use xlink:href="#m8f23b838b0" x="228.090909" y="158.058771" style="fill: #e377c2; stroke: #e377c2"/>
     <use xlink:href="#m8f23b838b0" x="284.454545" y="155.514912" style="fill: #e377c2; stroke: #e377c2"/>
     <use xlink:href="#m8f23b838b0" x="340.818182" y="152.075177" style="fill: #e377c2; stroke: #e377c2"/>
     <use xlink:href="#m8f23b838b0" x="397.181818" y="149.362834" style="fill: #e377c2; stroke: #e377c2"/>
     <use xlink:href="#m8f23b838b0" x="453.545455" y="148.151053" style="fill: #e377c2; stroke: #e377c2"/>
     <use xlink:href="#m8f23b838b0" x="509.909091" y="150.513672" style="fill: #e377c2; stroke: #e377c2"/>
     <use xlink:href="#m8f23b838b0" x="566.272727" y="151.539192" style="fill: #e377c2; stroke: #e377c2"/>
     <use xlink:href="#m8f23b838b0" x="622.636364" y="149.22748" style="fill: #e377c2; stroke: #e377c2"/>
    </g>
   </g>
   <g id="patch_3">
    <path d="M 90 249.458824 
L 90 86.4 
" style="fill: none; stroke: #000000; stroke-width: 0.8; stroke-linejoin: miter; stroke-linecap: square"/>
   </g>
   <g id="patch_4">
    <path d="M 648 249.458824 
L 648 86.4 
" style="fill: none; stroke: #000000; stroke-width: 0.8; stroke-linejoin: miter; stroke-linecap: square"/>
   </g>
   <g id="patch_5">
    <path d="M 90 249.458824 
L 648 249.458824 
" style="fill: none; stroke: #000000; stroke-width: 0.8; stroke-linejoin: miter; stroke-linecap: square"/>
   </g>
   <g id="patch_6">
    <path d="M 90 86.4 
L 648 86.4 
" style="fill: none; stroke: #000000; stroke-width: 0.8; stroke-linejoin: miter; stroke-linecap: square"/>
   </g>
   <g id="text_6">
    <!-- non_cs -->
    <g transform="translate(341.39875 80.4) scale(0.16 -0.16)">
     <defs>
      <path id="DejaVuSans-6e" d="M 3513 2113 
L 3513 0 
L 2938 0 
L 2938 2094 
Q 2938 2591 2744 2837 
Q 2550 3084 2163 3084 
Q 1697 3084 1428 2787 
Q 1159 2491 1159 1978 
L 1159 0 
L 581 0 
L 581 3500 
L 1159 3500 
L 1159 2956 
Q 1366 3272 1645 3428 
Q 1925 3584 2291 3584 
Q 2894 3584 3203 3211 
Q 3513 2838 3513 2113 
z
" transform="scale(0.015625)"/>
      <path id="DejaVuSans-6f" d="M 1959 3097 
Q 1497 3097 1228 2736 
Q 959 2375 959 1747 
Q 959 1119 1226 758 
Q 1494 397 1959 397 
Q 2419 397 2687 759 
Q 2956 1122 2956 1747 
Q 2956 2369 2687 2733 
Q 2419 3097 1959 3097 
z
M 1959 3584 
Q 2709 3584 3137 3096 
Q 3566 2609 3566 1747 
Q 3566 888 3137 398 
Q 2709 -91 1959 -91 
Q 1206 -91 779 398 
Q 353 888 353 1747 
Q 353 2609 779 3096 
Q 1206 3584 1959 3584 
z
" transform="scale(0.015625)"/>
      <path id="DejaVuSans-5f" d="M 3263 -1063 
L 3263 -1509 
L -63 -1509 
L -63 -1063 
L 3263 -1063 
z
" transform="scale(0.015625)"/>
      <path id="DejaVuSans-63" d="M 3122 3366 
L 3122 2828 
Q 2878 2963 2633 3030 
Q 2388 3097 2138 3097 
Q 1578 3097 1268 2742 
Q 959 2388 959 1747 
Q 959 1106 1268 751 
Q 1578 397 2138 397 
Q 2388 397 2633 464 
Q 2878 531 3122 666 
L 3122 134 
Q 2881 22 2623 -34 
Q 2366 -91 2075 -91 
Q 1284 -91 818 406 
Q 353 903 353 1747 
Q 353 2603 823 3093 
Q 1294 3584 2113 3584 
Q 2378 3584 2631 3529 
Q 2884 3475 3122 3366 
z
" transform="scale(0.015625)"/>
      <path id="DejaVuSans-73" d="M 2834 3397 
L 2834 2853 
Q 2591 2978 2328 3040 
Q 2066 3103 1784 3103 
Q 1356 3103 1142 2972 
Q 928 2841 928 2578 
Q 928 2378 1081 2264 
Q 1234 2150 1697 2047 
L 1894 2003 
Q 2506 1872 2764 1633 
Q 3022 1394 3022 966 
Q 3022 478 2636 193 
Q 2250 -91 1575 -91 
Q 1294 -91 989 -36 
Q 684 19 347 128 
L 347 722 
Q 666 556 975 473 
Q 1284 391 1588 391 
Q 1994 391 2212 530 
Q 2431 669 2431 922 
Q 2431 1156 2273 1281 
Q 2116 1406 1581 1522 
L 1381 1569 
Q 847 1681 609 1914 
Q 372 2147 372 2553 
Q 372 3047 722 3315 
Q 1072 3584 1716 3584 
Q 2034 3584 2315 3537 
Q 2597 3491 2834 3397 
z
" transform="scale(0.015625)"/>
     </defs>
     <use xlink:href="#DejaVuSans-6e"/>
     <use xlink:href="#DejaVuSans-6f" x="63.378906"/>
     <use xlink:href="#DejaVuSans-6e" x="124.560547"/>
     <use xlink:href="#DejaVuSans-5f" x="187.939453"/>
     <use xlink:href="#DejaVuSans-63" x="237.939453"/>
     <use xlink:href="#DejaVuSans-73" x="292.919922"/>
    </g>
   </g>
   <g id="legend_1">
    <g id="patch_7">
     <path d="M 302.453125 244.458824 
L 641 244.458824 
Q 643 244.458824 643 242.458824 
L 643 214.102574 
Q 643 212.102574 641 212.102574 
L 302.453125 212.102574 
Q 300.453125 212.102574 300.453125 214.102574 
L 300.453125 242.458824 
Q 300.453125 244.458824 302.453125 244.458824 
z
" style="fill: #ffffff; opacity: 0.8; stroke: #cccccc; stroke-linejoin: miter"/>
    </g>
    <g id="line2d_23">
     <path d="M 304.453125 220.201011 
L 314.453125 220.201011 
L 324.453125 220.201011 
" style="fill: none; stroke-dasharray: 7.4,3.2; stroke-dashoffset: 0; stroke: #1f77b4; stroke-width: 2"/>
     <g>
      <use xlink:href="#m619ee1877f" x="314.453125" y="220.201011" style="fill: #1f77b4; stroke: #1f77b4"/>
     </g>
    </g>
    <g id="text_7">
     <!-- math.AP -->
     <g transform="translate(332.453125 223.701011) scale(0.1 -0.1)">
      <defs>
       <path id="DejaVuSans-6d" d="M 3328 2828 
Q 3544 3216 3844 3400 
Q 4144 3584 4550 3584 
Q 5097 3584 5394 3201 
Q 5691 2819 5691 2113 
L 5691 0 
L 5113 0 
L 5113 2094 
Q 5113 2597 4934 2840 
Q 4756 3084 4391 3084 
Q 3944 3084 3684 2787 
Q 3425 2491 3425 1978 
L 3425 0 
L 2847 0 
L 2847 2094 
Q 2847 2600 2669 2842 
Q 2491 3084 2119 3084 
Q 1678 3084 1418 2786 
Q 1159 2488 1159 1978 
L 1159 0 
L 581 0 
L 581 3500 
L 1159 3500 
L 1159 2956 
Q 1356 3278 1631 3431 
Q 1906 3584 2284 3584 
Q 2666 3584 2933 3390 
Q 3200 3197 3328 2828 
z
" transform="scale(0.015625)"/>
       <path id="DejaVuSans-61" d="M 2194 1759 
Q 1497 1759 1228 1600 
Q 959 1441 959 1056 
Q 959 750 1161 570 
Q 1363 391 1709 391 
Q 2188 391 2477 730 
Q 2766 1069 2766 1631 
L 2766 1759 
L 2194 1759 
z
M 3341 1997 
L 3341 0 
L 2766 0 
L 2766 531 
Q 2569 213 2275 61 
Q 1981 -91 1556 -91 
Q 1019 -91 701 211 
Q 384 513 384 1019 
Q 384 1609 779 1909 
Q 1175 2209 1959 2209 
L 2766 2209 
L 2766 2266 
Q 2766 2663 2505 2880 
Q 2244 3097 1772 3097 
Q 1472 3097 1187 3025 
Q 903 2953 641 2809 
L 641 3341 
Q 956 3463 1253 3523 
Q 1550 3584 1831 3584 
Q 2591 3584 2966 3190 
Q 3341 2797 3341 1997 
z
" transform="scale(0.015625)"/>
       <path id="DejaVuSans-74" d="M 1172 4494 
L 1172 3500 
L 2356 3500 
L 2356 3053 
L 1172 3053 
L 1172 1153 
Q 1172 725 1289 603 
Q 1406 481 1766 481 
L 2356 481 
L 2356 0 
L 1766 0 
Q 1100 0 847 248 
Q 594 497 594 1153 
L 594 3053 
L 172 3053 
L 172 3500 
L 594 3500 
L 594 4494 
L 1172 4494 
z
" transform="scale(0.015625)"/>
       <path id="DejaVuSans-68" d="M 3513 2113 
L 3513 0 
L 2938 0 
L 2938 2094 
Q 2938 2591 2744 2837 
Q 2550 3084 2163 3084 
Q 1697 3084 1428 2787 
Q 1159 2491 1159 1978 
L 1159 0 
L 581 0 
L 581 4863 
L 1159 4863 
L 1159 2956 
Q 1366 3272 1645 3428 
Q 1925 3584 2291 3584 
Q 2894 3584 3203 3211 
Q 3513 2838 3513 2113 
z
" transform="scale(0.015625)"/>
       <path id="DejaVuSans-2e" d="M 684 794 
L 1344 794 
L 1344 0 
L 684 0 
L 684 794 
z
" transform="scale(0.015625)"/>
       <path id="DejaVuSans-41" d="M 2188 4044 
L 1331 1722 
L 3047 1722 
L 2188 4044 
z
M 1831 4666 
L 2547 4666 
L 4325 0 
L 3669 0 
L 3244 1197 
L 1141 1197 
L 716 0 
L 50 0 
L 1831 4666 
z
" transform="scale(0.015625)"/>
       <path id="DejaVuSans-50" d="M 1259 4147 
L 1259 2394 
L 2053 2394 
Q 2494 2394 2734 2622 
Q 2975 2850 2975 3272 
Q 2975 3691 2734 3919 
Q 2494 4147 2053 4147 
L 1259 4147 
z
M 628 4666 
L 2053 4666 
Q 2838 4666 3239 4311 
Q 3641 3956 3641 3272 
Q 3641 2581 3239 2228 
Q 2838 1875 2053 1875 
L 1259 1875 
L 1259 0 
L 628 0 
L 628 4666 
z
" transform="scale(0.015625)"/>
      </defs>
      <use xlink:href="#DejaVuSans-6d"/>
      <use xlink:href="#DejaVuSans-61" x="97.412109"/>
      <use xlink:href="#DejaVuSans-74" x="158.691406"/>
      <use xlink:href="#DejaVuSans-68" x="197.900391"/>
      <use xlink:href="#DejaVuSans-2e" x="261.279297"/>
      <use xlink:href="#DejaVuSans-41" x="293.066406"/>
      <use xlink:href="#DejaVuSans-50" x="361.474609"/>
     </g>
    </g>
    <g id="line2d_24">
     <path d="M 304.453125 234.879136 
L 314.453125 234.879136 
L 324.453125 234.879136 
" style="fill: none; stroke-dasharray: 7.4,3.2; stroke-dashoffset: 0; stroke: #ff7f0e; stroke-width: 2"/>
     <g>
      <use xlink:href="#m02d8f58111" x="314.453125" y="234.879136" style="fill: #ff7f0e; stroke: #ff7f0e"/>
     </g>
    </g>
    <g id="text_8">
     <!-- hep-ph -->
     <g transform="translate(332.453125 238.379136) scale(0.1 -0.1)">
      <defs>
       <path id="DejaVuSans-65" d="M 3597 1894 
L 3597 1613 
L 953 1613 
Q 991 1019 1311 708 
Q 1631 397 2203 397 
Q 2534 397 2845 478 
Q 3156 559 3463 722 
L 3463 178 
Q 3153 47 2828 -22 
Q 2503 -91 2169 -91 
Q 1331 -91 842 396 
Q 353 884 353 1716 
Q 353 2575 817 3079 
Q 1281 3584 2069 3584 
Q 2775 3584 3186 3129 
Q 3597 2675 3597 1894 
z
M 3022 2063 
Q 3016 2534 2758 2815 
Q 2500 3097 2075 3097 
Q 1594 3097 1305 2825 
Q 1016 2553 972 2059 
L 3022 2063 
z
" transform="scale(0.015625)"/>
       <path id="DejaVuSans-70" d="M 1159 525 
L 1159 -1331 
L 581 -1331 
L 581 3500 
L 1159 3500 
L 1159 2969 
Q 1341 3281 1617 3432 
Q 1894 3584 2278 3584 
Q 2916 3584 3314 3078 
Q 3713 2572 3713 1747 
Q 3713 922 3314 415 
Q 2916 -91 2278 -91 
Q 1894 -91 1617 61 
Q 1341 213 1159 525 
z
M 3116 1747 
Q 3116 2381 2855 2742 
Q 2594 3103 2138 3103 
Q 1681 3103 1420 2742 
Q 1159 2381 1159 1747 
Q 1159 1113 1420 752 
Q 1681 391 2138 391 
Q 2594 391 2855 752 
Q 3116 1113 3116 1747 
z
" transform="scale(0.015625)"/>
       <path id="DejaVuSans-2d" d="M 313 2009 
L 1997 2009 
L 1997 1497 
L 313 1497 
L 313 2009 
z
" transform="scale(0.015625)"/>
      </defs>
      <use xlink:href="#DejaVuSans-68"/>
      <use xlink:href="#DejaVuSans-65" x="63.378906"/>
      <use xlink:href="#DejaVuSans-70" x="124.902344"/>
      <use xlink:href="#DejaVuSans-2d" x="188.378906"/>
      <use xlink:href="#DejaVuSans-70" x="224.462891"/>
      <use xlink:href="#DejaVuSans-68" x="287.939453"/>
     </g>
    </g>
    <g id="line2d_25">
     <path d="M 394.628125 220.201011 
L 404.628125 220.201011 
L 414.628125 220.201011 
" style="fill: none; stroke-dasharray: 7.4,3.2; stroke-dashoffset: 0; stroke: #2ca02c; stroke-width: 2"/>
     <g>
      <use xlink:href="#m2d7e63e3a7" x="404.628125" y="220.201011" style="fill: #2ca02c; stroke: #2ca02c"/>
     </g>
    </g>
    <g id="text_9">
     <!-- econ.GN -->
     <g transform="translate(422.628125 223.701011) scale(0.1 -0.1)">
      <defs>
       <path id="DejaVuSans-47" d="M 3809 666 
L 3809 1919 
L 2778 1919 
L 2778 2438 
L 4434 2438 
L 4434 434 
Q 4069 175 3628 42 
Q 3188 -91 2688 -91 
Q 1594 -91 976 548 
Q 359 1188 359 2328 
Q 359 3472 976 4111 
Q 1594 4750 2688 4750 
Q 3144 4750 3555 4637 
Q 3966 4525 4313 4306 
L 4313 3634 
Q 3963 3931 3569 4081 
Q 3175 4231 2741 4231 
Q 1884 4231 1454 3753 
Q 1025 3275 1025 2328 
Q 1025 1384 1454 906 
Q 1884 428 2741 428 
Q 3075 428 3337 486 
Q 3600 544 3809 666 
z
" transform="scale(0.015625)"/>
       <path id="DejaVuSans-4e" d="M 628 4666 
L 1478 4666 
L 3547 763 
L 3547 4666 
L 4159 4666 
L 4159 0 
L 3309 0 
L 1241 3903 
L 1241 0 
L 628 0 
L 628 4666 
z
" transform="scale(0.015625)"/>
      </defs>
      <use xlink:href="#DejaVuSans-65"/>
      <use xlink:href="#DejaVuSans-63" x="61.523438"/>
      <use xlink:href="#DejaVuSans-6f" x="116.503906"/>
      <use xlink:href="#DejaVuSans-6e" x="177.685547"/>
      <use xlink:href="#DejaVuSans-2e" x="241.064453"/>
      <use xlink:href="#DejaVuSans-47" x="272.851562"/>
      <use xlink:href="#DejaVuSans-4e" x="350.341797"/>
     </g>
    </g>
    <g id="line2d_26">
     <path d="M 394.628125 234.879136 
L 404.628125 234.879136 
L 414.628125 234.879136 
" style="fill: none; stroke-dasharray: 7.4,3.2; stroke-dashoffset: 0; stroke: #d62728; stroke-width: 2"/>
     <g>
      <use xlink:href="#ma341a593dd" x="404.628125" y="234.879136" style="fill: #d62728; stroke: #d62728"/>
     </g>
    </g>
    <g id="text_10">
     <!-- eess.SP -->
     <g transform="translate(422.628125 238.379136) scale(0.1 -0.1)">
      <defs>
       <path id="DejaVuSans-53" d="M 3425 4513 
L 3425 3897 
Q 3066 4069 2747 4153 
Q 2428 4238 2131 4238 
Q 1616 4238 1336 4038 
Q 1056 3838 1056 3469 
Q 1056 3159 1242 3001 
Q 1428 2844 1947 2747 
L 2328 2669 
Q 3034 2534 3370 2195 
Q 3706 1856 3706 1288 
Q 3706 609 3251 259 
Q 2797 -91 1919 -91 
Q 1588 -91 1214 -16 
Q 841 59 441 206 
L 441 856 
Q 825 641 1194 531 
Q 1563 422 1919 422 
Q 2459 422 2753 634 
Q 3047 847 3047 1241 
Q 3047 1584 2836 1778 
Q 2625 1972 2144 2069 
L 1759 2144 
Q 1053 2284 737 2584 
Q 422 2884 422 3419 
Q 422 4038 858 4394 
Q 1294 4750 2059 4750 
Q 2388 4750 2728 4690 
Q 3069 4631 3425 4513 
z
" transform="scale(0.015625)"/>
      </defs>
      <use xlink:href="#DejaVuSans-65"/>
      <use xlink:href="#DejaVuSans-65" x="61.523438"/>
      <use xlink:href="#DejaVuSans-73" x="123.046875"/>
      <use xlink:href="#DejaVuSans-73" x="175.146484"/>
      <use xlink:href="#DejaVuSans-2e" x="227.246094"/>
      <use xlink:href="#DejaVuSans-53" x="259.033203"/>
      <use xlink:href="#DejaVuSans-50" x="322.509766"/>
     </g>
    </g>
    <g id="line2d_27">
     <path d="M 485.14375 220.201011 
L 495.14375 220.201011 
L 505.14375 220.201011 
" style="fill: none; stroke-dasharray: 7.4,3.2; stroke-dashoffset: 0; stroke: #9467bd; stroke-width: 2"/>
     <g>
      <use xlink:href="#ma4737a265c" x="495.14375" y="220.201011" style="fill: #9467bd; stroke: #9467bd"/>
     </g>
    </g>
    <g id="text_11">
     <!-- q-bio.PE -->
     <g transform="translate(513.14375 223.701011) scale(0.1 -0.1)">
      <defs>
       <path id="DejaVuSans-71" d="M 947 1747 
Q 947 1113 1208 752 
Q 1469 391 1925 391 
Q 2381 391 2643 752 
Q 2906 1113 2906 1747 
Q 2906 2381 2643 2742 
Q 2381 3103 1925 3103 
Q 1469 3103 1208 2742 
Q 947 2381 947 1747 
z
M 2906 525 
Q 2725 213 2448 61 
Q 2172 -91 1784 -91 
Q 1150 -91 751 415 
Q 353 922 353 1747 
Q 353 2572 751 3078 
Q 1150 3584 1784 3584 
Q 2172 3584 2448 3432 
Q 2725 3281 2906 2969 
L 2906 3500 
L 3481 3500 
L 3481 -1331 
L 2906 -1331 
L 2906 525 
z
" transform="scale(0.015625)"/>
       <path id="DejaVuSans-62" d="M 3116 1747 
Q 3116 2381 2855 2742 
Q 2594 3103 2138 3103 
Q 1681 3103 1420 2742 
Q 1159 2381 1159 1747 
Q 1159 1113 1420 752 
Q 1681 391 2138 391 
Q 2594 391 2855 752 
Q 3116 1113 3116 1747 
z
M 1159 2969 
Q 1341 3281 1617 3432 
Q 1894 3584 2278 3584 
Q 2916 3584 3314 3078 
Q 3713 2572 3713 1747 
Q 3713 922 3314 415 
Q 2916 -91 2278 -91 
Q 1894 -91 1617 61 
Q 1341 213 1159 525 
L 1159 0 
L 581 0 
L 581 4863 
L 1159 4863 
L 1159 2969 
z
" transform="scale(0.015625)"/>
       <path id="DejaVuSans-69" d="M 603 3500 
L 1178 3500 
L 1178 0 
L 603 0 
L 603 3500 
z
M 603 4863 
L 1178 4863 
L 1178 4134 
L 603 4134 
L 603 4863 
z
" transform="scale(0.015625)"/>
       <path id="DejaVuSans-45" d="M 628 4666 
L 3578 4666 
L 3578 4134 
L 1259 4134 
L 1259 2753 
L 3481 2753 
L 3481 2222 
L 1259 2222 
L 1259 531 
L 3634 531 
L 3634 0 
L 628 0 
L 628 4666 
z
" transform="scale(0.015625)"/>
      </defs>
      <use xlink:href="#DejaVuSans-71"/>
      <use xlink:href="#DejaVuSans-2d" x="63.476562"/>
      <use xlink:href="#DejaVuSans-62" x="99.560547"/>
      <use xlink:href="#DejaVuSans-69" x="163.037109"/>
      <use xlink:href="#DejaVuSans-6f" x="190.820312"/>
      <use xlink:href="#DejaVuSans-2e" x="250.251953"/>
      <use xlink:href="#DejaVuSans-50" x="282.039062"/>
      <use xlink:href="#DejaVuSans-45" x="342.341797"/>
     </g>
    </g>
    <g id="line2d_28">
     <path d="M 485.14375 234.879136 
L 495.14375 234.879136 
L 505.14375 234.879136 
" style="fill: none; stroke-dasharray: 7.4,3.2; stroke-dashoffset: 0; stroke: #8c564b; stroke-width: 2"/>
     <g>
      <use xlink:href="#m97b3c919cd" x="495.14375" y="234.879136" style="fill: #8c564b; stroke: #8c564b"/>
     </g>
    </g>
    <g id="text_12">
     <!-- q-fin.ST -->
     <g transform="translate(513.14375 238.379136) scale(0.1 -0.1)">
      <defs>
       <path id="DejaVuSans-66" d="M 2375 4863 
L 2375 4384 
L 1825 4384 
Q 1516 4384 1395 4259 
Q 1275 4134 1275 3809 
L 1275 3500 
L 2222 3500 
L 2222 3053 
L 1275 3053 
L 1275 0 
L 697 0 
L 697 3053 
L 147 3053 
L 147 3500 
L 697 3500 
L 697 3744 
Q 697 4328 969 4595 
Q 1241 4863 1831 4863 
L 2375 4863 
z
" transform="scale(0.015625)"/>
       <path id="DejaVuSans-54" d="M -19 4666 
L 3928 4666 
L 3928 4134 
L 2272 4134 
L 2272 0 
L 1638 0 
L 1638 4134 
L -19 4134 
L -19 4666 
z
" transform="scale(0.015625)"/>
      </defs>
      <use xlink:href="#DejaVuSans-71"/>
      <use xlink:href="#DejaVuSans-2d" x="63.476562"/>
      <use xlink:href="#DejaVuSans-66" x="99.560547"/>
      <use xlink:href="#DejaVuSans-69" x="134.765625"/>
      <use xlink:href="#DejaVuSans-6e" x="162.548828"/>
      <use xlink:href="#DejaVuSans-2e" x="225.927734"/>
      <use xlink:href="#DejaVuSans-53" x="257.714844"/>
      <use xlink:href="#DejaVuSans-54" x="321.191406"/>
     </g>
    </g>
    <g id="line2d_29">
     <path d="M 573.696875 220.201011 
L 583.696875 220.201011 
L 593.696875 220.201011 
" style="fill: none; stroke-dasharray: 7.4,3.2; stroke-dashoffset: 0; stroke: #e377c2; stroke-width: 2"/>
     <g>
      <use xlink:href="#m8f23b838b0" x="583.696875" y="220.201011" style="fill: #e377c2; stroke: #e377c2"/>
     </g>
    </g>
    <g id="text_13">
     <!-- stat.ME -->
     <g transform="translate(601.696875 223.701011) scale(0.1 -0.1)">
      <defs>
       <path id="DejaVuSans-4d" d="M 628 4666 
L 1569 4666 
L 2759 1491 
L 3956 4666 
L 4897 4666 
L 4897 0 
L 4281 0 
L 4281 4097 
L 3078 897 
L 2444 897 
L 1241 4097 
L 1241 0 
L 628 0 
L 628 4666 
z
" transform="scale(0.015625)"/>
      </defs>
      <use xlink:href="#DejaVuSans-73"/>
      <use xlink:href="#DejaVuSans-74" x="52.099609"/>
      <use xlink:href="#DejaVuSans-61" x="91.308594"/>
      <use xlink:href="#DejaVuSans-74" x="152.587891"/>
      <use xlink:href="#DejaVuSans-2e" x="191.796875"/>
      <use xlink:href="#DejaVuSans-4d" x="223.583984"/>
      <use xlink:href="#DejaVuSans-45" x="309.863281"/>
     </g>
    </g>
   </g>
  </g>
  <g id="axes_2">
   <g id="patch_8">
    <path d="M 90 445.129412 
L 648 445.129412 
L 648 282.070588 
L 90 282.070588 
z
" style="fill: #ffffff"/>
   </g>
   <g id="matplotlib.axis_3">
    <g id="xtick_11">
     <g id="line2d_30">
      <g>
       <use xlink:href="#m38f82a70db" x="115.363636" y="445.129412" style="stroke: #000000; stroke-width: 0.8"/>
      </g>
     </g>
    </g>
    <g id="xtick_12">
     <g id="line2d_31">
      <g>
       <use xlink:href="#m38f82a70db" x="171.727273" y="445.129412" style="stroke: #000000; stroke-width: 0.8"/>
      </g>
     </g>
    </g>
    <g id="xtick_13">
     <g id="line2d_32">
      <g>
       <use xlink:href="#m38f82a70db" x="228.090909" y="445.129412" style="stroke: #000000; stroke-width: 0.8"/>
      </g>
     </g>
    </g>
    <g id="xtick_14">
     <g id="line2d_33">
      <g>
       <use xlink:href="#m38f82a70db" x="284.454545" y="445.129412" style="stroke: #000000; stroke-width: 0.8"/>
      </g>
     </g>
    </g>
    <g id="xtick_15">
     <g id="line2d_34">
      <g>
       <use xlink:href="#m38f82a70db" x="340.818182" y="445.129412" style="stroke: #000000; stroke-width: 0.8"/>
      </g>
     </g>
    </g>
    <g id="xtick_16">
     <g id="line2d_35">
      <g>
       <use xlink:href="#m38f82a70db" x="397.181818" y="445.129412" style="stroke: #000000; stroke-width: 0.8"/>
      </g>
     </g>
    </g>
    <g id="xtick_17">
     <g id="line2d_36">
      <g>
       <use xlink:href="#m38f82a70db" x="453.545455" y="445.129412" style="stroke: #000000; stroke-width: 0.8"/>
      </g>
     </g>
    </g>
    <g id="xtick_18">
     <g id="line2d_37">
      <g>
       <use xlink:href="#m38f82a70db" x="509.909091" y="445.129412" style="stroke: #000000; stroke-width: 0.8"/>
      </g>
     </g>
    </g>
    <g id="xtick_19">
     <g id="line2d_38">
      <g>
       <use xlink:href="#m38f82a70db" x="566.272727" y="445.129412" style="stroke: #000000; stroke-width: 0.8"/>
      </g>
     </g>
    </g>
    <g id="xtick_20">
     <g id="line2d_39">
      <g>
       <use xlink:href="#m38f82a70db" x="622.636364" y="445.129412" style="stroke: #000000; stroke-width: 0.8"/>
      </g>
     </g>
    </g>
   </g>
   <g id="matplotlib.axis_4">
    <g id="ytick_6">
     <g id="line2d_40">
      <g>
       <use xlink:href="#mda626b0abd" x="90" y="437.717647" style="stroke: #000000; stroke-width: 0.8"/>
      </g>
     </g>
     <g id="text_14">
      <!-- 0 -->
      <g transform="translate(72.82 443.796397) scale(0.16 -0.16)">
       <use xlink:href="#DejaVuSans-30"/>
      </g>
     </g>
    </g>
    <g id="ytick_7">
     <g id="line2d_41">
      <g>
       <use xlink:href="#mda626b0abd" x="90" y="404.468609" style="stroke: #000000; stroke-width: 0.8"/>
      </g>
     </g>
     <g id="text_15">
      <!-- 5 -->
      <g transform="translate(72.82 410.547359) scale(0.16 -0.16)">
       <use xlink:href="#DejaVuSans-35"/>
      </g>
     </g>
    </g>
    <g id="ytick_8">
     <g id="line2d_42">
      <g>
       <use xlink:href="#mda626b0abd" x="90" y="371.219571" style="stroke: #000000; stroke-width: 0.8"/>
      </g>
     </g>
     <g id="text_16">
      <!-- 10 -->
      <g transform="translate(62.64 377.298321) scale(0.16 -0.16)">
       <use xlink:href="#DejaVuSans-31"/>
       <use xlink:href="#DejaVuSans-30" x="63.623047"/>
      </g>
     </g>
    </g>
    <g id="ytick_9">
     <g id="line2d_43">
      <g>
       <use xlink:href="#mda626b0abd" x="90" y="337.970533" style="stroke: #000000; stroke-width: 0.8"/>
      </g>
     </g>
     <g id="text_17">
      <!-- 15 -->
      <g transform="translate(62.64 344.049283) scale(0.16 -0.16)">
       <use xlink:href="#DejaVuSans-31"/>
       <use xlink:href="#DejaVuSans-35" x="63.623047"/>
      </g>
     </g>
    </g>
    <g id="ytick_10">
     <g id="line2d_44">
      <g>
       <use xlink:href="#mda626b0abd" x="90" y="304.721495" style="stroke: #000000; stroke-width: 0.8"/>
      </g>
     </g>
     <g id="text_18">
      <!-- 20 -->
      <g transform="translate(62.64 310.800245) scale(0.16 -0.16)">
       <use xlink:href="#DejaVuSans-32"/>
       <use xlink:href="#DejaVuSans-30" x="63.623047"/>
      </g>
     </g>
    </g>
   </g>
   <g id="line2d_45">
    <path d="M 115.363636 379.332949 
L 171.727273 381.771394 
L 228.090909 385.149385 
L 284.454545 382.767389 
L 340.818182 388.687739 
L 397.181818 390.665552 
L 453.545455 388.280123 
L 509.909091 391.807101 
L 566.272727 391.118774 
L 622.636364 391.776653 
" clip-path="url(#pb47afc3e1b)" style="fill: none; stroke-dasharray: 2,3.3; stroke-dashoffset: 0; stroke: #1f77b4; stroke-width: 2"/>
    <g clip-path="url(#pb47afc3e1b)">
     <use xlink:href="#m619ee1877f" x="115.363636" y="379.332949" style="fill: #1f77b4; stroke: #1f77b4"/>
     <use xlink:href="#m619ee1877f" x="171.727273" y="381.771394" style="fill: #1f77b4; stroke: #1f77b4"/>
     <use xlink:href="#m619ee1877f" x="228.090909" y="385.149385" style="fill: #1f77b4; stroke: #1f77b4"/>
     <use xlink:href="#m619ee1877f" x="284.454545" y="382.767389" style="fill: #1f77b4; stroke: #1f77b4"/>
     <use xlink:href="#m619ee1877f" x="340.818182" y="388.687739" style="fill: #1f77b4; stroke: #1f77b4"/>
     <use xlink:href="#m619ee1877f" x="397.181818" y="390.665552" style="fill: #1f77b4; stroke: #1f77b4"/>
     <use xlink:href="#m619ee1877f" x="453.545455" y="388.280123" style="fill: #1f77b4; stroke: #1f77b4"/>
     <use xlink:href="#m619ee1877f" x="509.909091" y="391.807101" style="fill: #1f77b4; stroke: #1f77b4"/>
     <use xlink:href="#m619ee1877f" x="566.272727" y="391.118774" style="fill: #1f77b4; stroke: #1f77b4"/>
     <use xlink:href="#m619ee1877f" x="622.636364" y="391.776653" style="fill: #1f77b4; stroke: #1f77b4"/>
    </g>
   </g>
   <g id="line2d_46">
    <path d="M 115.363636 376.935627 
L 171.727273 376.915838 
L 228.090909 376.379188 
L 284.454545 375.175917 
L 340.818182 376.609433 
L 397.181818 381.690718 
L 453.545455 376.974023 
L 509.909091 378.542198 
L 566.272727 378.091262 
L 622.636364 375.471945 
" clip-path="url(#pb47afc3e1b)" style="fill: none; stroke-dasharray: 2,3.3; stroke-dashoffset: 0; stroke: #ff7f0e; stroke-width: 2"/>
    <g clip-path="url(#pb47afc3e1b)">
     <use xlink:href="#m02d8f58111" x="115.363636" y="376.935627" style="fill: #ff7f0e; stroke: #ff7f0e"/>
     <use xlink:href="#m02d8f58111" x="171.727273" y="376.915838" style="fill: #ff7f0e; stroke: #ff7f0e"/>
     <use xlink:href="#m02d8f58111" x="228.090909" y="376.379188" style="fill: #ff7f0e; stroke: #ff7f0e"/>
     <use xlink:href="#m02d8f58111" x="284.454545" y="375.175917" style="fill: #ff7f0e; stroke: #ff7f0e"/>
     <use xlink:href="#m02d8f58111" x="340.818182" y="376.609433" style="fill: #ff7f0e; stroke: #ff7f0e"/>
     <use xlink:href="#m02d8f58111" x="397.181818" y="381.690718" style="fill: #ff7f0e; stroke: #ff7f0e"/>
     <use xlink:href="#m02d8f58111" x="453.545455" y="376.974023" style="fill: #ff7f0e; stroke: #ff7f0e"/>
     <use xlink:href="#m02d8f58111" x="509.909091" y="378.542198" style="fill: #ff7f0e; stroke: #ff7f0e"/>
     <use xlink:href="#m02d8f58111" x="566.272727" y="378.091262" style="fill: #ff7f0e; stroke: #ff7f0e"/>
     <use xlink:href="#m02d8f58111" x="622.636364" y="375.471945" style="fill: #ff7f0e; stroke: #ff7f0e"/>
    </g>
   </g>
   <g id="line2d_47">
    <path d="M 115.363636 389.499605 
L 171.727273 392.638455 
L 228.090909 395.577951 
L 284.454545 391.16833 
L 340.818182 391.787049 
L 397.181818 395.832314 
L 453.545455 391.829135 
L 509.909091 392.160722 
L 566.272727 397.45938 
L 622.636364 393.30508 
" clip-path="url(#pb47afc3e1b)" style="fill: none; stroke-dasharray: 2,3.3; stroke-dashoffset: 0; stroke: #2ca02c; stroke-width: 2"/>
    <g clip-path="url(#pb47afc3e1b)">
     <use xlink:href="#m2d7e63e3a7" x="115.363636" y="389.499605" style="fill: #2ca02c; stroke: #2ca02c"/>
     <use xlink:href="#m2d7e63e3a7" x="171.727273" y="392.638455" style="fill: #2ca02c; stroke: #2ca02c"/>
     <use xlink:href="#m2d7e63e3a7" x="228.090909" y="395.577951" style="fill: #2ca02c; stroke: #2ca02c"/>
     <use xlink:href="#m2d7e63e3a7" x="284.454545" y="391.16833" style="fill: #2ca02c; stroke: #2ca02c"/>
     <use xlink:href="#m2d7e63e3a7" x="340.818182" y="391.787049" style="fill: #2ca02c; stroke: #2ca02c"/>
     <use xlink:href="#m2d7e63e3a7" x="397.181818" y="395.832314" style="fill: #2ca02c; stroke: #2ca02c"/>
     <use xlink:href="#m2d7e63e3a7" x="453.545455" y="391.829135" style="fill: #2ca02c; stroke: #2ca02c"/>
     <use xlink:href="#m2d7e63e3a7" x="509.909091" y="392.160722" style="fill: #2ca02c; stroke: #2ca02c"/>
     <use xlink:href="#m2d7e63e3a7" x="566.272727" y="397.45938" style="fill: #2ca02c; stroke: #2ca02c"/>
     <use xlink:href="#m2d7e63e3a7" x="622.636364" y="393.30508" style="fill: #2ca02c; stroke: #2ca02c"/>
    </g>
   </g>
   <g id="line2d_48">
    <path d="M 115.363636 364.115494 
L 171.727273 363.686509 
L 228.090909 363.048661 
L 284.454545 359.567606 
L 340.818182 359.835521 
L 397.181818 357.598521 
L 453.545455 354.318448 
L 509.909091 351.31048 
L 566.272727 353.578101 
L 622.636364 349.244263 
" clip-path="url(#pb47afc3e1b)" style="fill: none; stroke-dasharray: 2,3.3; stroke-dashoffset: 0; stroke: #d62728; stroke-width: 2"/>
    <g clip-path="url(#pb47afc3e1b)">
     <use xlink:href="#ma341a593dd" x="115.363636" y="364.115494" style="fill: #d62728; stroke: #d62728"/>
     <use xlink:href="#ma341a593dd" x="171.727273" y="363.686509" style="fill: #d62728; stroke: #d62728"/>
     <use xlink:href="#ma341a593dd" x="228.090909" y="363.048661" style="fill: #d62728; stroke: #d62728"/>
     <use xlink:href="#ma341a593dd" x="284.454545" y="359.567606" style="fill: #d62728; stroke: #d62728"/>
     <use xlink:href="#ma341a593dd" x="340.818182" y="359.835521" style="fill: #d62728; stroke: #d62728"/>
     <use xlink:href="#ma341a593dd" x="397.181818" y="357.598521" style="fill: #d62728; stroke: #d62728"/>
     <use xlink:href="#ma341a593dd" x="453.545455" y="354.318448" style="fill: #d62728; stroke: #d62728"/>
     <use xlink:href="#ma341a593dd" x="509.909091" y="351.31048" style="fill: #d62728; stroke: #d62728"/>
     <use xlink:href="#ma341a593dd" x="566.272727" y="353.578101" style="fill: #d62728; stroke: #d62728"/>
     <use xlink:href="#ma341a593dd" x="622.636364" y="349.244263" style="fill: #d62728; stroke: #d62728"/>
    </g>
   </g>
   <g id="patch_9">
    <path d="M 90 445.129412 
L 90 282.070588 
" style="fill: none; stroke: #000000; stroke-width: 0.8; stroke-linejoin: miter; stroke-linecap: square"/>
   </g>
   <g id="patch_10">
    <path d="M 648 445.129412 
L 648 282.070588 
" style="fill: none; stroke: #000000; stroke-width: 0.8; stroke-linejoin: miter; stroke-linecap: square"/>
   </g>
   <g id="patch_11">
    <path d="M 90 445.129412 
L 648 445.129412 
" style="fill: none; stroke: #000000; stroke-width: 0.8; stroke-linejoin: miter; stroke-linecap: square"/>
   </g>
   <g id="patch_12">
    <path d="M 90 282.070588 
L 648 282.070588 
" style="fill: none; stroke: #000000; stroke-width: 0.8; stroke-linejoin: miter; stroke-linecap: square"/>
   </g>
   <g id="text_19">
    <!-- cs_non_ai -->
    <g transform="translate(330.27375 276.070588) scale(0.16 -0.16)">
     <use xlink:href="#DejaVuSans-63"/>
     <use xlink:href="#DejaVuSans-73" x="54.980469"/>
     <use xlink:href="#DejaVuSans-5f" x="107.080078"/>
     <use xlink:href="#DejaVuSans-6e" x="157.080078"/>
     <use xlink:href="#DejaVuSans-6f" x="220.458984"/>
     <use xlink:href="#DejaVuSans-6e" x="281.640625"/>
     <use xlink:href="#DejaVuSans-5f" x="345.019531"/>
     <use xlink:href="#DejaVuSans-61" x="395.019531"/>
     <use xlink:href="#DejaVuSans-69" x="456.298828"/>
    </g>
   </g>
   <g id="legend_2">
    <g id="patch_13">
     <path d="M 361.9875 304.748713 
L 641 304.748713 
Q 643 304.748713 643 302.748713 
L 643 289.070588 
Q 643 287.070588 641 287.070588 
L 361.9875 287.070588 
Q 359.9875 287.070588 359.9875 289.070588 
L 359.9875 302.748713 
Q 359.9875 304.748713 361.9875 304.748713 
z
" style="fill: #ffffff; opacity: 0.8; stroke: #cccccc; stroke-linejoin: miter"/>
    </g>
    <g id="line2d_49">
     <path d="M 363.9875 295.169026 
L 373.9875 295.169026 
L 383.9875 295.169026 
" style="fill: none; stroke-dasharray: 2,3.3; stroke-dashoffset: 0; stroke: #1f77b4; stroke-width: 2"/>
     <g>
      <use xlink:href="#m619ee1877f" x="373.9875" y="295.169026" style="fill: #1f77b4; stroke: #1f77b4"/>
     </g>
    </g>
    <g id="text_20">
     <!-- cs.CR -->
     <g transform="translate(391.9875 298.669026) scale(0.1 -0.1)">
      <defs>
       <path id="DejaVuSans-43" d="M 4122 4306 
L 4122 3641 
Q 3803 3938 3442 4084 
Q 3081 4231 2675 4231 
Q 1875 4231 1450 3742 
Q 1025 3253 1025 2328 
Q 1025 1406 1450 917 
Q 1875 428 2675 428 
Q 3081 428 3442 575 
Q 3803 722 4122 1019 
L 4122 359 
Q 3791 134 3420 21 
Q 3050 -91 2638 -91 
Q 1578 -91 968 557 
Q 359 1206 359 2328 
Q 359 3453 968 4101 
Q 1578 4750 2638 4750 
Q 3056 4750 3426 4639 
Q 3797 4528 4122 4306 
z
" transform="scale(0.015625)"/>
       <path id="DejaVuSans-52" d="M 2841 2188 
Q 3044 2119 3236 1894 
Q 3428 1669 3622 1275 
L 4263 0 
L 3584 0 
L 2988 1197 
Q 2756 1666 2539 1819 
Q 2322 1972 1947 1972 
L 1259 1972 
L 1259 0 
L 628 0 
L 628 4666 
L 2053 4666 
Q 2853 4666 3247 4331 
Q 3641 3997 3641 3322 
Q 3641 2881 3436 2590 
Q 3231 2300 2841 2188 
z
M 1259 4147 
L 1259 2491 
L 2053 2491 
Q 2509 2491 2742 2702 
Q 2975 2913 2975 3322 
Q 2975 3731 2742 3939 
Q 2509 4147 2053 4147 
L 1259 4147 
z
" transform="scale(0.015625)"/>
      </defs>
      <use xlink:href="#DejaVuSans-63"/>
      <use xlink:href="#DejaVuSans-73" x="54.980469"/>
      <use xlink:href="#DejaVuSans-2e" x="107.080078"/>
      <use xlink:href="#DejaVuSans-43" x="138.867188"/>
      <use xlink:href="#DejaVuSans-52" x="208.691406"/>
     </g>
    </g>
    <g id="line2d_50">
     <path d="M 439.804688 295.169026 
L 449.804688 295.169026 
L 459.804688 295.169026 
" style="fill: none; stroke-dasharray: 2,3.3; stroke-dashoffset: 0; stroke: #ff7f0e; stroke-width: 2"/>
     <g>
      <use xlink:href="#m02d8f58111" x="449.804688" y="295.169026" style="fill: #ff7f0e; stroke: #ff7f0e"/>
     </g>
    </g>
    <g id="text_21">
     <!-- cs.IT -->
     <g transform="translate(467.804688 298.669026) scale(0.1 -0.1)">
      <defs>
       <path id="DejaVuSans-49" d="M 628 4666 
L 1259 4666 
L 1259 0 
L 628 0 
L 628 4666 
z
" transform="scale(0.015625)"/>
      </defs>
      <use xlink:href="#DejaVuSans-63"/>
      <use xlink:href="#DejaVuSans-73" x="54.980469"/>
      <use xlink:href="#DejaVuSans-2e" x="107.080078"/>
      <use xlink:href="#DejaVuSans-49" x="138.867188"/>
      <use xlink:href="#DejaVuSans-54" x="168.359375"/>
     </g>
    </g>
    <g id="line2d_51">
     <path d="M 510.748438 295.169026 
L 520.748438 295.169026 
L 530.748438 295.169026 
" style="fill: none; stroke-dasharray: 2,3.3; stroke-dashoffset: 0; stroke: #2ca02c; stroke-width: 2"/>
     <g>
      <use xlink:href="#m2d7e63e3a7" x="520.748438" y="295.169026" style="fill: #2ca02c; stroke: #2ca02c"/>
     </g>
    </g>
    <g id="text_22">
     <!-- cs.NI -->
     <g transform="translate(538.748438 298.669026) scale(0.1 -0.1)">
      <use xlink:href="#DejaVuSans-63"/>
      <use xlink:href="#DejaVuSans-73" x="54.980469"/>
      <use xlink:href="#DejaVuSans-2e" x="107.080078"/>
      <use xlink:href="#DejaVuSans-4e" x="138.867188"/>
      <use xlink:href="#DejaVuSans-49" x="213.671875"/>
     </g>
    </g>
    <g id="line2d_52">
     <path d="M 583.065625 295.169026 
L 593.065625 295.169026 
L 603.065625 295.169026 
" style="fill: none; stroke-dasharray: 2,3.3; stroke-dashoffset: 0; stroke: #d62728; stroke-width: 2"/>
     <g>
      <use xlink:href="#ma341a593dd" x="593.065625" y="295.169026" style="fill: #d62728; stroke: #d62728"/>
     </g>
    </g>
    <g id="text_23">
     <!-- cs.DS -->
     <g transform="translate(611.065625 298.669026) scale(0.1 -0.1)">
      <defs>
       <path id="DejaVuSans-44" d="M 1259 4147 
L 1259 519 
L 2022 519 
Q 2988 519 3436 956 
Q 3884 1394 3884 2338 
Q 3884 3275 3436 3711 
Q 2988 4147 2022 4147 
L 1259 4147 
z
M 628 4666 
L 1925 4666 
Q 3281 4666 3915 4102 
Q 4550 3538 4550 2338 
Q 4550 1131 3912 565 
Q 3275 0 1925 0 
L 628 0 
L 628 4666 
z
" transform="scale(0.015625)"/>
      </defs>
      <use xlink:href="#DejaVuSans-63"/>
      <use xlink:href="#DejaVuSans-73" x="54.980469"/>
      <use xlink:href="#DejaVuSans-2e" x="107.080078"/>
      <use xlink:href="#DejaVuSans-44" x="138.867188"/>
      <use xlink:href="#DejaVuSans-53" x="215.869141"/>
     </g>
    </g>
   </g>
  </g>
  <g id="axes_3">
   <g id="patch_14">
    <path d="M 90 640.8 
L 648 640.8 
L 648 477.741176 
L 90 477.741176 
z
" style="fill: #ffffff"/>
   </g>
   <g id="matplotlib.axis_5">
    <g id="xtick_21">
     <g id="line2d_53">
      <g>
       <use xlink:href="#m38f82a70db" x="115.363636" y="640.8" style="stroke: #000000; stroke-width: 0.8"/>
      </g>
     </g>
     <g id="text_24">
      <!-- 2013 -->
      <g transform="translate(101.218041 681.114873) rotate(-35) scale(0.16 -0.16)">
       <defs>
        <path id="DejaVuSans-33" d="M 2597 2516 
Q 3050 2419 3304 2112 
Q 3559 1806 3559 1356 
Q 3559 666 3084 287 
Q 2609 -91 1734 -91 
Q 1441 -91 1130 -33 
Q 819 25 488 141 
L 488 750 
Q 750 597 1062 519 
Q 1375 441 1716 441 
Q 2309 441 2620 675 
Q 2931 909 2931 1356 
Q 2931 1769 2642 2001 
Q 2353 2234 1838 2234 
L 1294 2234 
L 1294 2753 
L 1863 2753 
Q 2328 2753 2575 2939 
Q 2822 3125 2822 3475 
Q 2822 3834 2567 4026 
Q 2313 4219 1838 4219 
Q 1578 4219 1281 4162 
Q 984 4106 628 3988 
L 628 4550 
Q 988 4650 1302 4700 
Q 1616 4750 1894 4750 
Q 2613 4750 3031 4423 
Q 3450 4097 3450 3541 
Q 3450 3153 3228 2886 
Q 3006 2619 2597 2516 
z
" transform="scale(0.015625)"/>
       </defs>
       <use xlink:href="#DejaVuSans-32"/>
       <use xlink:href="#DejaVuSans-30" x="63.623047"/>
       <use xlink:href="#DejaVuSans-31" x="127.246094"/>
       <use xlink:href="#DejaVuSans-33" x="190.869141"/>
      </g>
     </g>
    </g>
    <g id="xtick_22">
     <g id="line2d_54">
      <g>
       <use xlink:href="#m38f82a70db" x="171.727273" y="640.8" style="stroke: #000000; stroke-width: 0.8"/>
      </g>
     </g>
     <g id="text_25">
      <!-- 2014 -->
      <g transform="translate(157.581677 681.114873) rotate(-35) scale(0.16 -0.16)">
       <defs>
        <path id="DejaVuSans-34" d="M 2419 4116 
L 825 1625 
L 2419 1625 
L 2419 4116 
z
M 2253 4666 
L 3047 4666 
L 3047 1625 
L 3713 1625 
L 3713 1100 
L 3047 1100 
L 3047 0 
L 2419 0 
L 2419 1100 
L 313 1100 
L 313 1709 
L 2253 4666 
z
" transform="scale(0.015625)"/>
       </defs>
       <use xlink:href="#DejaVuSans-32"/>
       <use xlink:href="#DejaVuSans-30" x="63.623047"/>
       <use xlink:href="#DejaVuSans-31" x="127.246094"/>
       <use xlink:href="#DejaVuSans-34" x="190.869141"/>
      </g>
     </g>
    </g>
    <g id="xtick_23">
     <g id="line2d_55">
      <g>
       <use xlink:href="#m38f82a70db" x="228.090909" y="640.8" style="stroke: #000000; stroke-width: 0.8"/>
      </g>
     </g>
     <g id="text_26">
      <!-- 2015 -->
      <g transform="translate(213.945313 681.114873) rotate(-35) scale(0.16 -0.16)">
       <use xlink:href="#DejaVuSans-32"/>
       <use xlink:href="#DejaVuSans-30" x="63.623047"/>
       <use xlink:href="#DejaVuSans-31" x="127.246094"/>
       <use xlink:href="#DejaVuSans-35" x="190.869141"/>
      </g>
     </g>
    </g>
    <g id="xtick_24">
     <g id="line2d_56">
      <g>
       <use xlink:href="#m38f82a70db" x="284.454545" y="640.8" style="stroke: #000000; stroke-width: 0.8"/>
      </g>
     </g>
     <g id="text_27">
      <!-- 2016 -->
      <g transform="translate(270.30895 681.114873) rotate(-35) scale(0.16 -0.16)">
       <defs>
        <path id="DejaVuSans-36" d="M 2113 2584 
Q 1688 2584 1439 2293 
Q 1191 2003 1191 1497 
Q 1191 994 1439 701 
Q 1688 409 2113 409 
Q 2538 409 2786 701 
Q 3034 994 3034 1497 
Q 3034 2003 2786 2293 
Q 2538 2584 2113 2584 
z
M 3366 4563 
L 3366 3988 
Q 3128 4100 2886 4159 
Q 2644 4219 2406 4219 
Q 1781 4219 1451 3797 
Q 1122 3375 1075 2522 
Q 1259 2794 1537 2939 
Q 1816 3084 2150 3084 
Q 2853 3084 3261 2657 
Q 3669 2231 3669 1497 
Q 3669 778 3244 343 
Q 2819 -91 2113 -91 
Q 1303 -91 875 529 
Q 447 1150 447 2328 
Q 447 3434 972 4092 
Q 1497 4750 2381 4750 
Q 2619 4750 2861 4703 
Q 3103 4656 3366 4563 
z
" transform="scale(0.015625)"/>
       </defs>
       <use xlink:href="#DejaVuSans-32"/>
       <use xlink:href="#DejaVuSans-30" x="63.623047"/>
       <use xlink:href="#DejaVuSans-31" x="127.246094"/>
       <use xlink:href="#DejaVuSans-36" x="190.869141"/>
      </g>
     </g>
    </g>
    <g id="xtick_25">
     <g id="line2d_57">
      <g>
       <use xlink:href="#m38f82a70db" x="340.818182" y="640.8" style="stroke: #000000; stroke-width: 0.8"/>
      </g>
     </g>
     <g id="text_28">
      <!-- 2017 -->
      <g transform="translate(326.672586 681.114873) rotate(-35) scale(0.16 -0.16)">
       <defs>
        <path id="DejaVuSans-37" d="M 525 4666 
L 3525 4666 
L 3525 4397 
L 1831 0 
L 1172 0 
L 2766 4134 
L 525 4134 
L 525 4666 
z
" transform="scale(0.015625)"/>
       </defs>
       <use xlink:href="#DejaVuSans-32"/>
       <use xlink:href="#DejaVuSans-30" x="63.623047"/>
       <use xlink:href="#DejaVuSans-31" x="127.246094"/>
       <use xlink:href="#DejaVuSans-37" x="190.869141"/>
      </g>
     </g>
    </g>
    <g id="xtick_26">
     <g id="line2d_58">
      <g>
       <use xlink:href="#m38f82a70db" x="397.181818" y="640.8" style="stroke: #000000; stroke-width: 0.8"/>
      </g>
     </g>
     <g id="text_29">
      <!-- 2018 -->
      <g transform="translate(383.036223 681.114873) rotate(-35) scale(0.16 -0.16)">
       <defs>
        <path id="DejaVuSans-38" d="M 2034 2216 
Q 1584 2216 1326 1975 
Q 1069 1734 1069 1313 
Q 1069 891 1326 650 
Q 1584 409 2034 409 
Q 2484 409 2743 651 
Q 3003 894 3003 1313 
Q 3003 1734 2745 1975 
Q 2488 2216 2034 2216 
z
M 1403 2484 
Q 997 2584 770 2862 
Q 544 3141 544 3541 
Q 544 4100 942 4425 
Q 1341 4750 2034 4750 
Q 2731 4750 3128 4425 
Q 3525 4100 3525 3541 
Q 3525 3141 3298 2862 
Q 3072 2584 2669 2484 
Q 3125 2378 3379 2068 
Q 3634 1759 3634 1313 
Q 3634 634 3220 271 
Q 2806 -91 2034 -91 
Q 1263 -91 848 271 
Q 434 634 434 1313 
Q 434 1759 690 2068 
Q 947 2378 1403 2484 
z
M 1172 3481 
Q 1172 3119 1398 2916 
Q 1625 2713 2034 2713 
Q 2441 2713 2670 2916 
Q 2900 3119 2900 3481 
Q 2900 3844 2670 4047 
Q 2441 4250 2034 4250 
Q 1625 4250 1398 4047 
Q 1172 3844 1172 3481 
z
" transform="scale(0.015625)"/>
       </defs>
       <use xlink:href="#DejaVuSans-32"/>
       <use xlink:href="#DejaVuSans-30" x="63.623047"/>
       <use xlink:href="#DejaVuSans-31" x="127.246094"/>
       <use xlink:href="#DejaVuSans-38" x="190.869141"/>
      </g>
     </g>
    </g>
    <g id="xtick_27">
     <g id="line2d_59">
      <g>
       <use xlink:href="#m38f82a70db" x="453.545455" y="640.8" style="stroke: #000000; stroke-width: 0.8"/>
      </g>
     </g>
     <g id="text_30">
      <!-- 2019 -->
      <g transform="translate(439.399859 681.114873) rotate(-35) scale(0.16 -0.16)">
       <defs>
        <path id="DejaVuSans-39" d="M 703 97 
L 703 672 
Q 941 559 1184 500 
Q 1428 441 1663 441 
Q 2288 441 2617 861 
Q 2947 1281 2994 2138 
Q 2813 1869 2534 1725 
Q 2256 1581 1919 1581 
Q 1219 1581 811 2004 
Q 403 2428 403 3163 
Q 403 3881 828 4315 
Q 1253 4750 1959 4750 
Q 2769 4750 3195 4129 
Q 3622 3509 3622 2328 
Q 3622 1225 3098 567 
Q 2575 -91 1691 -91 
Q 1453 -91 1209 -44 
Q 966 3 703 97 
z
M 1959 2075 
Q 2384 2075 2632 2365 
Q 2881 2656 2881 3163 
Q 2881 3666 2632 3958 
Q 2384 4250 1959 4250 
Q 1534 4250 1286 3958 
Q 1038 3666 1038 3163 
Q 1038 2656 1286 2365 
Q 1534 2075 1959 2075 
z
" transform="scale(0.015625)"/>
       </defs>
       <use xlink:href="#DejaVuSans-32"/>
       <use xlink:href="#DejaVuSans-30" x="63.623047"/>
       <use xlink:href="#DejaVuSans-31" x="127.246094"/>
       <use xlink:href="#DejaVuSans-39" x="190.869141"/>
      </g>
     </g>
    </g>
    <g id="xtick_28">
     <g id="line2d_60">
      <g>
       <use xlink:href="#m38f82a70db" x="509.909091" y="640.8" style="stroke: #000000; stroke-width: 0.8"/>
      </g>
     </g>
     <g id="text_31">
      <!-- 2020 -->
      <g transform="translate(495.763495 681.114873) rotate(-35) scale(0.16 -0.16)">
       <use xlink:href="#DejaVuSans-32"/>
       <use xlink:href="#DejaVuSans-30" x="63.623047"/>
       <use xlink:href="#DejaVuSans-32" x="127.246094"/>
       <use xlink:href="#DejaVuSans-30" x="190.869141"/>
      </g>
     </g>
    </g>
    <g id="xtick_29">
     <g id="line2d_61">
      <g>
       <use xlink:href="#m38f82a70db" x="566.272727" y="640.8" style="stroke: #000000; stroke-width: 0.8"/>
      </g>
     </g>
     <g id="text_32">
      <!-- 2021 -->
      <g transform="translate(552.127132 681.114873) rotate(-35) scale(0.16 -0.16)">
       <use xlink:href="#DejaVuSans-32"/>
       <use xlink:href="#DejaVuSans-30" x="63.623047"/>
       <use xlink:href="#DejaVuSans-32" x="127.246094"/>
       <use xlink:href="#DejaVuSans-31" x="190.869141"/>
      </g>
     </g>
    </g>
    <g id="xtick_30">
     <g id="line2d_62">
      <g>
       <use xlink:href="#m38f82a70db" x="622.636364" y="640.8" style="stroke: #000000; stroke-width: 0.8"/>
      </g>
     </g>
     <g id="text_33">
      <!-- 2022 -->
      <g transform="translate(608.490768 681.114873) rotate(-35) scale(0.16 -0.16)">
       <use xlink:href="#DejaVuSans-32"/>
       <use xlink:href="#DejaVuSans-30" x="63.623047"/>
       <use xlink:href="#DejaVuSans-32" x="127.246094"/>
       <use xlink:href="#DejaVuSans-32" x="190.869141"/>
      </g>
     </g>
    </g>
   </g>
   <g id="matplotlib.axis_6">
    <g id="ytick_11">
     <g id="line2d_63">
      <g>
       <use xlink:href="#mda626b0abd" x="90" y="633.388235" style="stroke: #000000; stroke-width: 0.8"/>
      </g>
     </g>
     <g id="text_34">
      <!-- 0 -->
      <g transform="translate(72.82 639.466985) scale(0.16 -0.16)">
       <use xlink:href="#DejaVuSans-30"/>
      </g>
     </g>
    </g>
    <g id="ytick_12">
     <g id="line2d_64">
      <g>
       <use xlink:href="#mda626b0abd" x="90" y="600.139197" style="stroke: #000000; stroke-width: 0.8"/>
      </g>
     </g>
     <g id="text_35">
      <!-- 5 -->
      <g transform="translate(72.82 606.217947) scale(0.16 -0.16)">
       <use xlink:href="#DejaVuSans-35"/>
      </g>
     </g>
    </g>
    <g id="ytick_13">
     <g id="line2d_65">
      <g>
       <use xlink:href="#mda626b0abd" x="90" y="566.890159" style="stroke: #000000; stroke-width: 0.8"/>
      </g>
     </g>
     <g id="text_36">
      <!-- 10 -->
      <g transform="translate(62.64 572.968909) scale(0.16 -0.16)">
       <use xlink:href="#DejaVuSans-31"/>
       <use xlink:href="#DejaVuSans-30" x="63.623047"/>
      </g>
     </g>
    </g>
    <g id="ytick_14">
     <g id="line2d_66">
      <g>
       <use xlink:href="#mda626b0abd" x="90" y="533.641121" style="stroke: #000000; stroke-width: 0.8"/>
      </g>
     </g>
     <g id="text_37">
      <!-- 15 -->
      <g transform="translate(62.64 539.719871) scale(0.16 -0.16)">
       <use xlink:href="#DejaVuSans-31"/>
       <use xlink:href="#DejaVuSans-35" x="63.623047"/>
      </g>
     </g>
    </g>
    <g id="ytick_15">
     <g id="line2d_67">
      <g>
       <use xlink:href="#mda626b0abd" x="90" y="500.392084" style="stroke: #000000; stroke-width: 0.8"/>
      </g>
     </g>
     <g id="text_38">
      <!-- 20 -->
      <g transform="translate(62.64 506.470834) scale(0.16 -0.16)">
       <use xlink:href="#DejaVuSans-32"/>
       <use xlink:href="#DejaVuSans-30" x="63.623047"/>
      </g>
     </g>
    </g>
   </g>
   <g id="line2d_68">
    <path d="M 115.363636 558.542098 
L 171.727273 572.708561 
L 228.090909 580.429932 
L 284.454545 588.797321 
L 340.818182 591.298777 
L 397.181818 594.123107 
L 453.545455 596.469797 
L 509.909091 598.282798 
L 566.272727 599.192079 
L 622.636364 598.157482 
" clip-path="url(#pafb2d092c6)" style="fill: none; stroke: #1f77b4; stroke-width: 2; stroke-linecap: square"/>
    <g clip-path="url(#pafb2d092c6)">
     <use xlink:href="#m619ee1877f" x="115.363636" y="558.542098" style="fill: #1f77b4; stroke: #1f77b4"/>
     <use xlink:href="#m619ee1877f" x="171.727273" y="572.708561" style="fill: #1f77b4; stroke: #1f77b4"/>
     <use xlink:href="#m619ee1877f" x="228.090909" y="580.429932" style="fill: #1f77b4; stroke: #1f77b4"/>
     <use xlink:href="#m619ee1877f" x="284.454545" y="588.797321" style="fill: #1f77b4; stroke: #1f77b4"/>
     <use xlink:href="#m619ee1877f" x="340.818182" y="591.298777" style="fill: #1f77b4; stroke: #1f77b4"/>
     <use xlink:href="#m619ee1877f" x="397.181818" y="594.123107" style="fill: #1f77b4; stroke: #1f77b4"/>
     <use xlink:href="#m619ee1877f" x="453.545455" y="596.469797" style="fill: #1f77b4; stroke: #1f77b4"/>
     <use xlink:href="#m619ee1877f" x="509.909091" y="598.282798" style="fill: #1f77b4; stroke: #1f77b4"/>
     <use xlink:href="#m619ee1877f" x="566.272727" y="599.192079" style="fill: #1f77b4; stroke: #1f77b4"/>
     <use xlink:href="#m619ee1877f" x="622.636364" y="598.157482" style="fill: #1f77b4; stroke: #1f77b4"/>
    </g>
   </g>
   <g id="line2d_69">
    <path d="M 115.363636 526.259585 
L 171.727273 555.771313 
L 228.090909 565.316224 
L 284.454545 575.022364 
L 340.818182 578.821221 
L 397.181818 583.522392 
L 453.545455 582.185728 
L 509.909091 584.859381 
L 566.272727 590.149906 
L 622.636364 590.821766 
" clip-path="url(#pafb2d092c6)" style="fill: none; stroke: #ff7f0e; stroke-width: 2; stroke-linecap: square"/>
    <g clip-path="url(#pafb2d092c6)">
     <use xlink:href="#m02d8f58111" x="115.363636" y="526.259585" style="fill: #ff7f0e; stroke: #ff7f0e"/>
     <use xlink:href="#m02d8f58111" x="171.727273" y="555.771313" style="fill: #ff7f0e; stroke: #ff7f0e"/>
     <use xlink:href="#m02d8f58111" x="228.090909" y="565.316224" style="fill: #ff7f0e; stroke: #ff7f0e"/>
     <use xlink:href="#m02d8f58111" x="284.454545" y="575.022364" style="fill: #ff7f0e; stroke: #ff7f0e"/>
     <use xlink:href="#m02d8f58111" x="340.818182" y="578.821221" style="fill: #ff7f0e; stroke: #ff7f0e"/>
     <use xlink:href="#m02d8f58111" x="397.181818" y="583.522392" style="fill: #ff7f0e; stroke: #ff7f0e"/>
     <use xlink:href="#m02d8f58111" x="453.545455" y="582.185728" style="fill: #ff7f0e; stroke: #ff7f0e"/>
     <use xlink:href="#m02d8f58111" x="509.909091" y="584.859381" style="fill: #ff7f0e; stroke: #ff7f0e"/>
     <use xlink:href="#m02d8f58111" x="566.272727" y="590.149906" style="fill: #ff7f0e; stroke: #ff7f0e"/>
     <use xlink:href="#m02d8f58111" x="622.636364" y="590.821766" style="fill: #ff7f0e; stroke: #ff7f0e"/>
    </g>
   </g>
   <g id="line2d_70">
    <path d="M 115.363636 567.517955 
L 171.727273 574.188755 
L 228.090909 577.81136 
L 284.454545 584.221632 
L 340.818182 585.005319 
L 397.181818 586.977622 
L 453.545455 586.754926 
L 509.909091 587.712763 
L 566.272727 589.265613 
L 622.636364 587.520606 
" clip-path="url(#pafb2d092c6)" style="fill: none; stroke: #2ca02c; stroke-width: 2; stroke-linecap: square"/>
    <g clip-path="url(#pafb2d092c6)">
     <use xlink:href="#m2d7e63e3a7" x="115.363636" y="567.517955" style="fill: #2ca02c; stroke: #2ca02c"/>
     <use xlink:href="#m2d7e63e3a7" x="171.727273" y="574.188755" style="fill: #2ca02c; stroke: #2ca02c"/>
     <use xlink:href="#m2d7e63e3a7" x="228.090909" y="577.81136" style="fill: #2ca02c; stroke: #2ca02c"/>
     <use xlink:href="#m2d7e63e3a7" x="284.454545" y="584.221632" style="fill: #2ca02c; stroke: #2ca02c"/>
     <use xlink:href="#m2d7e63e3a7" x="340.818182" y="585.005319" style="fill: #2ca02c; stroke: #2ca02c"/>
     <use xlink:href="#m2d7e63e3a7" x="397.181818" y="586.977622" style="fill: #2ca02c; stroke: #2ca02c"/>
     <use xlink:href="#m2d7e63e3a7" x="453.545455" y="586.754926" style="fill: #2ca02c; stroke: #2ca02c"/>
     <use xlink:href="#m2d7e63e3a7" x="509.909091" y="587.712763" style="fill: #2ca02c; stroke: #2ca02c"/>
     <use xlink:href="#m2d7e63e3a7" x="566.272727" y="589.265613" style="fill: #2ca02c; stroke: #2ca02c"/>
     <use xlink:href="#m2d7e63e3a7" x="622.636364" y="587.520606" style="fill: #2ca02c; stroke: #2ca02c"/>
    </g>
   </g>
   <g id="line2d_71">
    <path d="M 115.363636 576.453636 
L 171.727273 581.029427 
L 228.090909 589.529656 
L 284.454545 583.159988 
L 340.818182 595.539851 
L 397.181818 600.010538 
L 453.545455 599.451768 
L 509.909091 599.747449 
L 566.272727 599.41885 
L 622.636364 598.708391 
" clip-path="url(#pafb2d092c6)" style="fill: none; stroke: #d62728; stroke-width: 2; stroke-linecap: square"/>
    <g clip-path="url(#pafb2d092c6)">
     <use xlink:href="#ma341a593dd" x="115.363636" y="576.453636" style="fill: #d62728; stroke: #d62728"/>
     <use xlink:href="#ma341a593dd" x="171.727273" y="581.029427" style="fill: #d62728; stroke: #d62728"/>
     <use xlink:href="#ma341a593dd" x="228.090909" y="589.529656" style="fill: #d62728; stroke: #d62728"/>
     <use xlink:href="#ma341a593dd" x="284.454545" y="583.159988" style="fill: #d62728; stroke: #d62728"/>
     <use xlink:href="#ma341a593dd" x="340.818182" y="595.539851" style="fill: #d62728; stroke: #d62728"/>
     <use xlink:href="#ma341a593dd" x="397.181818" y="600.010538" style="fill: #d62728; stroke: #d62728"/>
     <use xlink:href="#ma341a593dd" x="453.545455" y="599.451768" style="fill: #d62728; stroke: #d62728"/>
     <use xlink:href="#ma341a593dd" x="509.909091" y="599.747449" style="fill: #d62728; stroke: #d62728"/>
     <use xlink:href="#ma341a593dd" x="566.272727" y="599.41885" style="fill: #d62728; stroke: #d62728"/>
     <use xlink:href="#ma341a593dd" x="622.636364" y="598.708391" style="fill: #d62728; stroke: #d62728"/>
    </g>
   </g>
   <g id="patch_15">
    <path d="M 90 640.8 
L 90 477.741176 
" style="fill: none; stroke: #000000; stroke-width: 0.8; stroke-linejoin: miter; stroke-linecap: square"/>
   </g>
   <g id="patch_16">
    <path d="M 648 640.8 
L 648 477.741176 
" style="fill: none; stroke: #000000; stroke-width: 0.8; stroke-linejoin: miter; stroke-linecap: square"/>
   </g>
   <g id="patch_17">
    <path d="M 90 640.8 
L 648 640.8 
" style="fill: none; stroke: #000000; stroke-width: 0.8; stroke-linejoin: miter; stroke-linecap: square"/>
   </g>
   <g id="patch_18">
    <path d="M 90 477.741176 
L 648 477.741176 
" style="fill: none; stroke: #000000; stroke-width: 0.8; stroke-linejoin: miter; stroke-linecap: square"/>
   </g>
   <g id="text_39">
    <!-- cs_ai -->
    <g transform="translate(349.30875 471.741176) scale(0.16 -0.16)">
     <use xlink:href="#DejaVuSans-63"/>
     <use xlink:href="#DejaVuSans-73" x="54.980469"/>
     <use xlink:href="#DejaVuSans-5f" x="107.080078"/>
     <use xlink:href="#DejaVuSans-61" x="157.080078"/>
     <use xlink:href="#DejaVuSans-69" x="218.359375"/>
    </g>
   </g>
   <g id="legend_3">
    <g id="patch_19">
     <path d="M 359.967188 500.419301 
L 641 500.419301 
Q 643 500.419301 643 498.419301 
L 643 484.741176 
Q 643 482.741176 641 482.741176 
L 359.967188 482.741176 
Q 357.967188 482.741176 357.967188 484.741176 
L 357.967188 498.419301 
Q 357.967188 500.419301 359.967188 500.419301 
z
" style="fill: #ffffff; opacity: 0.8; stroke: #cccccc; stroke-linejoin: miter"/>
    </g>
    <g id="line2d_72">
     <path d="M 361.967188 490.839614 
L 371.967188 490.839614 
L 381.967188 490.839614 
" style="fill: none; stroke: #1f77b4; stroke-width: 2; stroke-linecap: square"/>
     <g>
      <use xlink:href="#m619ee1877f" x="371.967188" y="490.839614" style="fill: #1f77b4; stroke: #1f77b4"/>
     </g>
    </g>
    <g id="text_40">
     <!-- cs.CL -->
     <g transform="translate(389.967188 494.339614) scale(0.1 -0.1)">
      <defs>
       <path id="DejaVuSans-4c" d="M 628 4666 
L 1259 4666 
L 1259 531 
L 3531 531 
L 3531 0 
L 628 0 
L 628 4666 
z
" transform="scale(0.015625)"/>
      </defs>
      <use xlink:href="#DejaVuSans-63"/>
      <use xlink:href="#DejaVuSans-73" x="54.980469"/>
      <use xlink:href="#DejaVuSans-2e" x="107.080078"/>
      <use xlink:href="#DejaVuSans-43" x="138.867188"/>
      <use xlink:href="#DejaVuSans-4c" x="208.691406"/>
     </g>
    </g>
    <g id="line2d_73">
     <path d="M 436.407813 490.839614 
L 446.407813 490.839614 
L 456.407813 490.839614 
" style="fill: none; stroke: #ff7f0e; stroke-width: 2; stroke-linecap: square"/>
     <g>
      <use xlink:href="#m02d8f58111" x="446.407813" y="490.839614" style="fill: #ff7f0e; stroke: #ff7f0e"/>
     </g>
    </g>
    <g id="text_41">
     <!-- cs.AI -->
     <g transform="translate(464.407813 494.339614) scale(0.1 -0.1)">
      <use xlink:href="#DejaVuSans-63"/>
      <use xlink:href="#DejaVuSans-73" x="54.980469"/>
      <use xlink:href="#DejaVuSans-2e" x="107.080078"/>
      <use xlink:href="#DejaVuSans-41" x="138.867188"/>
      <use xlink:href="#DejaVuSans-49" x="207.275391"/>
     </g>
    </g>
    <g id="line2d_74">
     <path d="M 508.084375 490.839614 
L 518.084375 490.839614 
L 528.084375 490.839614 
" style="fill: none; stroke: #2ca02c; stroke-width: 2; stroke-linecap: square"/>
     <g>
      <use xlink:href="#m2d7e63e3a7" x="518.084375" y="490.839614" style="fill: #2ca02c; stroke: #2ca02c"/>
     </g>
    </g>
    <g id="text_42">
     <!-- cs.LG -->
     <g transform="translate(536.084375 494.339614) scale(0.1 -0.1)">
      <use xlink:href="#DejaVuSans-63"/>
      <use xlink:href="#DejaVuSans-73" x="54.980469"/>
      <use xlink:href="#DejaVuSans-2e" x="107.080078"/>
      <use xlink:href="#DejaVuSans-4c" x="138.867188"/>
      <use xlink:href="#DejaVuSans-47" x="194.580078"/>
     </g>
    </g>
    <g id="line2d_75">
     <path d="M 583.290625 490.839614 
L 593.290625 490.839614 
L 603.290625 490.839614 
" style="fill: none; stroke: #d62728; stroke-width: 2; stroke-linecap: square"/>
     <g>
      <use xlink:href="#ma341a593dd" x="593.290625" y="490.839614" style="fill: #d62728; stroke: #d62728"/>
     </g>
    </g>
    <g id="text_43">
     <!-- cs.CV -->
     <g transform="translate(611.290625 494.339614) scale(0.1 -0.1)">
      <defs>
       <path id="DejaVuSans-56" d="M 1831 0 
L 50 4666 
L 709 4666 
L 2188 738 
L 3669 4666 
L 4325 4666 
L 2547 0 
L 1831 0 
z
" transform="scale(0.015625)"/>
      </defs>
      <use xlink:href="#DejaVuSans-63"/>
      <use xlink:href="#DejaVuSans-73" x="54.980469"/>
      <use xlink:href="#DejaVuSans-2e" x="107.080078"/>
      <use xlink:href="#DejaVuSans-43" x="138.867188"/>
      <use xlink:href="#DejaVuSans-56" x="208.691406"/>
     </g>
    </g>
   </g>
  </g>
  <g id="text_44">
   <!-- Year -->
   <g transform="translate(338.825 708.640625) scale(0.2 -0.2)">
    <defs>
     <path id="DejaVuSans-59" d="M -13 4666 
L 666 4666 
L 1959 2747 
L 3244 4666 
L 3922 4666 
L 2272 2222 
L 2272 0 
L 1638 0 
L 1638 2222 
L -13 4666 
z
" transform="scale(0.015625)"/>
     <path id="DejaVuSans-72" d="M 2631 2963 
Q 2534 3019 2420 3045 
Q 2306 3072 2169 3072 
Q 1681 3072 1420 2755 
Q 1159 2438 1159 1844 
L 1159 0 
L 581 0 
L 581 3500 
L 1159 3500 
L 1159 2956 
Q 1341 3275 1631 3429 
Q 1922 3584 2338 3584 
Q 2397 3584 2469 3576 
Q 2541 3569 2628 3553 
L 2631 2963 
z
" transform="scale(0.015625)"/>
    </defs>
    <use xlink:href="#DejaVuSans-59"/>
    <use xlink:href="#DejaVuSans-65" x="47.833984"/>
    <use xlink:href="#DejaVuSans-61" x="109.357422"/>
    <use xlink:href="#DejaVuSans-72" x="170.636719"/>
   </g>
  </g>
  <g id="text_45">
   <!-- Mean AoC -->
   <g transform="translate(29.596875 410.192187) rotate(-90) scale(0.2 -0.2)">
    <defs>
     <path id="DejaVuSans-20" transform="scale(0.015625)"/>
    </defs>
    <use xlink:href="#DejaVuSans-4d"/>
    <use xlink:href="#DejaVuSans-65" x="86.279297"/>
    <use xlink:href="#DejaVuSans-61" x="147.802734"/>
    <use xlink:href="#DejaVuSans-6e" x="209.082031"/>
    <use xlink:href="#DejaVuSans-20" x="272.460938"/>
    <use xlink:href="#DejaVuSans-41" x="304.248047"/>
    <use xlink:href="#DejaVuSans-6f" x="370.90625"/>
    <use xlink:href="#DejaVuSans-43" x="432.087891"/>
   </g>
  </g>
 </g>
 <defs>
  <clipPath id="p0db88d210c">
   <rect x="90" y="86.4" width="558" height="163.058824"/>
  </clipPath>
  <clipPath id="pb47afc3e1b">
   <rect x="90" y="282.070588" width="558" height="163.058824"/>
  </clipPath>
  <clipPath id="pafb2d092c6">
   <rect x="90" y="477.741176" width="558" height="163.058824"/>
  </clipPath>
 </defs>
</svg>
